<svg
	xmlns="http://www.w3.org/2000/svg"
	width="272.53"
	height="441.26">
<g><style type="text/css" >
<!-- create color definitions -->
<![CDATA[
circle.red {stroke: rgb(255, 0, 255); fill: none; }
circle.green {stroke: rgb(0, 255, 0); fill: none; }
circle.blue {stroke: rgb(0, 0, 255); fill: none; }
circle.black {stroke: rgb(0, 0, 0); fill: none; }
circle.gray {stroke: rgb(204, 204, 204); fill: none; }
circle.brown {stroke: rgb(211.65, 104.55, 30.6); fill: none; }
line.red {stroke: rgb(255, 0, 255); stroke-width: 0.383792; }
line.green {stroke: rgb(0, 255, 0); stroke-width: 0.383792; }
line.blue {stroke: rgb(0, 0, 255); stroke-width: 0.383792; }
line.black {stroke: rgb(0, 0, 0); stroke-width: 0.383792; }
line.gray {stroke: rgb(204, 204, 204); stroke-width: 0.383792; }
line.brown {stroke: rgb(211.65, 104.55, 30.6); stroke-width: 0.383792; }
line {stroke: rgb(0, 0, 0); }
text.red {fill: rgb(255, 0, 255); font-size: 3.070336px; font-weight: bold; font-family: Helvetica; }
text.green {fill: rgb(0, 255, 0); font-size: 3.070336px; font-weight: bold; font-family: Helvetica; }
text.blue {fill: rgb(0, 0, 255); font-size: 3.070336px; font-weight: bold; font-family: Helvetica; }
text.black {fill: rgb(0, 0, 0); font-size: 3.070336px; font-weight: bold; font-family: Helvetica; }
text.gray {fill: rgb(204, 204, 204); font-size: 3.070336px; font-weight: bold; font-family: Helvetica; }
text.brown {fill: rgb(211.65, 104.55, 30.6); font-size: 3.070336px; font-weight: bold; font-family: Helvetica; }
text {fill: rgb(0, 0, 0); font-size: 3.070336px; font-weight: bold; font-family: Helvetica; text-anchor: middle; alignment-baseline: middle; }

.pseudoknot_connection{stroke-linecap: round; stroke-opacity: 0.2; stroke-width: 1.5; }
.pseudoknot_segment1{stroke-linecap: round; stroke-opacity: 0.4; stroke-width: 3.07034; }
.pseudoknot_segment2{stroke-linecap: round; stroke-opacity: 0.4; stroke-width: 3.07034; }
line.numbering-line{stroke: rgb(204, 204, 204); stroke-width: 0.191896; }
line.predicted{stroke: rgb(0, 0, 0); stroke-dasharray: 2; }
polyline{fill: none; stroke-linejoin: round; }
template{visibility: hidden; }
text.numbering-label{fill: rgb(204, 204, 204); }
]]>
</style></g>
<g><title>0 (position.label in template: 0.5')</title><text x="66.7309" y="337.324" class="green" >5'</text></g>
<g><title>1 (position.label in template: 1.G)</title><text x="67.15" y="329.78" class="black" >G</text></g>
<g><line x1="69.1969" y1="329.473" x2="77.5531" y2="329.473" class="black" /></g>
<g><title>2 (position.label in template: 2.A)</title><text x="67.57" y="322.22" class="black" >A</text></g>
<g><line x1="69.6169" y1="321.913" x2="77.5531" y2="321.913" class="black" /></g>
<g><title>3 (position.label in template: 3.U)</title><text x="67.36" y="314.66" class="black" >U</text></g>
<g><line x1="69.4069" y1="314.353" x2="77.7631" y2="314.353" class="black" /></g>
<g><title>4 (position.label in template: 4.G)</title><text x="67.15" y="307.1" class="black" >G</text></g>
<g><line x1="69.1969" y1="306.793" x2="77.5531" y2="306.793" class="black" /></g>
<g><title>5 (position.label in template: 5.U)</title><text x="67.36" y="299.54" class="black" >U</text></g>
<g><line x1="69.4069" y1="299.233" x2="77.3431" y2="299.233" class="black" /></g>
<g><title>6 (position.label in template: 6.G)</title><text x="59.61" y="299.06" class="black" >G</text></g>
<g><title>7 (position.label in template: 7.A)</title><text x="53.64" y="295.01" class="black" >A</text></g>
<g><title>8 (position.label in template: 8.A)</title><text x="50" y="288.38" class="black" >A</text></g>
<g><title>9 (position.label in template: 9.A)</title><text x="50" y="280.82" class="black" >A</text></g>
<g><title>10 (position.label in template: 10.U)</title><text x="53.43" y="274.2" class="black" >U</text></g>
<g><text x="48.3447" y="269.524" class="numbering-label sequential" >10</text></g>
<g><line x1="52.0739" y1="272.953" x2="50.1869" y2="271.218" class="numbering-line sequential" /></g>
<g><title>11 (position.label in template: 11.C)</title><text x="59.82" y="270.14" class="black" >C</text></g>
<g><title>12 (position.label in template: 12.C)</title><text x="67.36" y="269.67" class="black" >C</text></g>
<g><line x1="69.4069" y1="269.363" x2="77.3431" y2="269.363" class="black" /></g>
<g><title>13 (position.label in template: 13.C)</title><text x="67.36" y="262.11" class="black" >C</text></g>
<g><line x1="69.4069" y1="261.803" x2="77.3431" y2="261.803" class="black" /></g>
<g><title>14 (position.label in template: 14.C)</title><text x="67.36" y="254.55" class="black" >C</text></g>
<g><line x1="69.4069" y1="254.243" x2="77.3431" y2="254.243" class="black" /></g>
<g><title>15 (position.label in template: 15.G)</title><text x="67.15" y="246.99" class="black" >G</text></g>
<g><line x1="69.1969" y1="246.683" x2="77.5531" y2="246.683" class="black" /></g>
<g><title>16 (position.label in template: 16.G)</title><text x="67.15" y="239.43" class="black" >G</text></g>
<g><line x1="69.1969" y1="239.123" x2="77.5531" y2="239.123" class="black" /></g>
<g><title>17 (position.label in template: 17.G)</title><text x="67.15" y="231.87" class="black" >G</text></g>
<g><line x1="69.1969" y1="231.563" x2="77.5531" y2="231.563" class="black" /></g>
<g><title>18 (position.label in template: 18.C)</title><text x="63.96" y="225.11" class="black" >C</text></g>
<g><title>19 (position.label in template: 19.U)</title><text x="66.54" y="218.01" class="black" >U</text></g>
<g><title>20 (position.label in template: 20.C)</title><text x="73.48" y="215.01" class="black" >C</text></g>
<g><text x="73.48" y="208.102" class="numbering-label sequential" >20</text></g>
<g><line x1="73.48" y1="213.168" x2="73.48" y2="209.637" class="numbering-line sequential" /></g>
<g><title>21 (position.label in template: 21.A)</title><text x="80.63" y="218.01" class="black" >A</text></g>
<g><title>22 (position.label in template: 22.A)</title><text x="83.21" y="225.11" class="black" >A</text></g>
<g><title>23 (position.label in template: 23.C)</title><text x="79.6" y="231.87" class="black" >C</text></g>
<g><title>24 (position.label in template: 24.C)</title><text x="79.6" y="239.43" class="black" >C</text></g>
<g><title>25 (position.label in template: 25.U)</title><text x="79.6" y="246.99" class="black" >U</text></g>
<g><title>26 (position.label in template: 26.G)</title><text x="79.39" y="254.55" class="black" >G</text></g>
<g><title>27 (position.label in template: 27.G)</title><text x="79.39" y="262.11" class="black" >G</text></g>
<g><title>28 (position.label in template: 28.G)</title><text x="79.39" y="269.67" class="black" >G</text></g>
<g><title>29 (position.label in template: 29.A)</title><text x="85.94" y="274.09" class="black" >A</text></g>
<g><title>30 (position.label in template: 30.A)</title><text x="89.38" y="280.82" class="black" >A</text></g>
<g><text x="96.1183" y="279.297" class="numbering-label sequential" >30</text></g>
<g><line x1="91.1769" y1="280.414" x2="94.2761" y2="279.713" class="numbering-line sequential" /></g>
<g><title>31 (position.label in template: 31.C)</title><text x="89.17" y="288.38" class="black" >C</text></g>
<g><title>32 (position.label in template: 32.U)</title><text x="85.73" y="295.11" class="black" >U</text></g>
<g><title>33 (position.label in template: 33.G)</title><text x="79.39" y="299.54" class="black" >G</text></g>
<g><title>34 (position.label in template: 34.C)</title><text x="79.6" y="307.1" class="black" >C</text></g>
<g><title>35 (position.label in template: 35.A)</title><text x="79.81" y="314.66" class="black" >A</text></g>
<g><title>36 (position.label in template: 36.U)</title><text x="79.6" y="322.22" class="black" >U</text></g>
<g><title>37 (position.label in template: 37.C)</title><text x="79.6" y="329.78" class="black" >C</text></g>
<g><title>38 (position.label in template: 38.U)</title><text x="90.29" y="340.47" class="black" >U</text></g>
<g><line x1="90.3251" y1="342.21" x2="90.4649" y2="350.356" class="black" /></g>
<g><title>39 (position.label in template: 39.G)</title><text x="97.64" y="340.47" class="black" >G</text></g>
<g><line x1="97.6751" y1="342.21" x2="97.8149" y2="350.356" class="black" /></g>
<g><title>40 (position.label in template: 40.A)</title><text x="103.14" y="334.87" class="black" >A</text></g>
<g><title>41 (position.label in template: 41.U)</title><text x="110.21" y="332.8" class="black" >U</text></g>
<g><title>42 (position.label in template: 42.A)</title><text x="117.68" y="334.87" class="black" >A</text></g>
<g><title>43 (position.label in template: 43.C)</title><text x="122.56" y="340.47" class="black" >C</text></g>
<g><line x1="122.525" y1="342.21" x2="122.385" y2="350.356" class="black" /></g>
<g><title>44 (position.label in template: 44.U)</title><text x="130.12" y="340.47" class="black" >U</text></g>
<g><line x1="130.085" y1="342.21" x2="129.945" y2="350.356" class="black" /></g>
<g><title>45 (position.label in template: 45.G)</title><text x="136.81" y="337.37" class="black" >G</text></g>
<g><title>46 (position.label in template: 46.G)</title><text x="143.7" y="340.47" class="black" >G</text></g>
<g><line x1="143.735" y1="342.21" x2="143.875" y2="350.356" class="black" /></g>
<g><title>47 (position.label in template: 47.C)</title><text x="151.47" y="340.47" class="black" >C</text></g>
<g><line x1="151.435" y1="342.21" x2="151.295" y2="350.356" class="black" /></g>
<g><title>48 (position.label in template: 48.A)</title><text x="155.92" y="334.21" class="black" >A</text></g>
<g><title>49 (position.label in template: 49.A)</title><text x="162.47" y="330.43" class="black" >A</text></g>
<g><line x1="164.511" y1="330.274" x2="172.429" y2="330.862" class="black" /></g>
<g><title>50 (position.label in template: 50.G)</title><text x="162.6" y="322.89" class="black" >G</text></g>
<g><line x1="164.642" y1="322.729" x2="172.978" y2="323.327" class="black" /></g>
<g><text x="155.704" y="322.483" class="numbering-label sequential" >50</text></g>
<g><line x1="160.761" y1="322.781" x2="157.546" y2="322.592" class="numbering-line sequential" /></g>
<g><title>51 (position.label in template: 51.C)</title><text x="163.36" y="315.35" class="black" >C</text></g>
<g><line x1="165.401" y1="315.194" x2="173.319" y2="315.782" class="black" /></g>
<g><title>52 (position.label in template: 52.U)</title><text x="160.77" y="308.25" class="black" >U</text></g>
<g><title>53 (position.label in template: 53.U)</title><text x="164.36" y="301.6" class="black" >U</text></g>
<g><line x1="166.402" y1="301.438" x2="174.728" y2="302.028" class="black" /></g>
<g><title>54 (position.label in template: 54.G)</title><text x="161.56" y="294.5" class="black" >G</text></g>
<g><title>55 (position.label in template: 55.A)</title><text x="165.56" y="287.84" class="black" >A</text></g>
<g><line x1="167.601" y1="287.684" x2="175.519" y2="288.272" class="black" /></g>
<g><title>56 (position.label in template: 56.G)</title><text x="165.69" y="280.3" class="black" >G</text></g>
<g><line x1="167.732" y1="280.139" x2="176.068" y2="280.737" class="black" /></g>
<g><title>57 (position.label in template: 57.U)</title><text x="166.45" y="272.76" class="black" >U</text></g>
<g><line x1="168.492" y1="272.599" x2="176.828" y2="273.197" class="black" /></g>
<g><title>58 (position.label in template: 58.C)</title><text x="167" y="265.22" class="black" >C</text></g>
<g><line x1="169.041" y1="265.064" x2="176.959" y2="265.652" class="black" /></g>
<g><title>59 (position.label in template: 59.U)</title><text x="167.55" y="257.68" class="black" >U</text></g>
<g><line x1="169.592" y1="257.519" x2="177.918" y2="258.117" class="black" /></g>
<g><title>60 (position.label in template: 60.C)</title><text x="168.09" y="250.14" class="black" >C</text></g>
<g><line x1="170.131" y1="249.984" x2="178.049" y2="250.572" class="black" /></g>
<g><title>61 (position.label in template: 61.G)</title><text x="168.43" y="242.6" class="black" >G</text></g>
<g><line x1="170.472" y1="242.439" x2="178.808" y2="243.037" class="black" /></g>
<g><title>62 (position.label in template: 62.U)</title><text x="169.19" y="235.06" class="black" >U</text></g>
<g><line x1="171.232" y1="234.899" x2="179.558" y2="235.497" class="black" /></g>
<g><title>63 (position.label in template: 63.A)</title><text x="162.56" y="231.82" class="black" >A</text></g>
<g><title>64 (position.label in template: 64.G)</title><text x="159.71" y="224.67" class="black" >G</text></g>
<g><title>65 (position.label in template: 65.A)</title><text x="163.57" y="217.94" class="black" >A</text></g>
<g><title>66 (position.label in template: 66.G)</title><text x="170.38" y="215.72" class="black" >G</text></g>
<g><line x1="172.422" y1="215.559" x2="180.758" y2="216.157" class="black" /></g>
<g><title>67 (position.label in template: 67.G)</title><text x="170.93" y="208.18" class="black" >G</text></g>
<g><line x1="172.972" y1="208.018" x2="181.308" y2="208.608" class="black" /></g>
<g><title>68 (position.label in template: 68.G)</title><text x="171.48" y="200.64" class="black" >G</text></g>
<g><line x1="173.522" y1="200.478" x2="181.858" y2="201.068" class="black" /></g>
<g><title>69 (position.label in template: 69.G)</title><text x="172.03" y="193.1" class="black" >G</text></g>
<g><line x1="174.072" y1="192.939" x2="182.398" y2="193.537" class="black" /></g>
<g><title>70 (position.label in template: 70.G)</title><text x="172.57" y="185.56" class="black" >G</text></g>
<g><line x1="174.612" y1="185.399" x2="182.948" y2="185.997" class="black" /></g>
<g><title>71 (position.label in template: 71.G)</title><text x="173.12" y="178.02" class="black" >G</text></g>
<g><line x1="175.162" y1="177.858" x2="183.498" y2="178.448" class="black" /></g>
<g><title>72 (position.label in template: 72.U)</title><text x="173.88" y="170.48" class="black" >U</text></g>
<g><line x1="175.921" y1="170.323" x2="183.839" y2="170.903" class="black" /></g>
<g><title>73 (position.label in template: 73.A)</title><text x="167.36" y="167.02" class="black" >A</text></g>
<g><title>74 (position.label in template: 74.G)</title><text x="161.58" y="161.7" class="black" >G</text></g>
<g><title>75 (position.label in template: 75.A)</title><text x="158.48" y="155" class="black" >A</text></g>
<g><title>76 (position.label in template: 76.A)</title><text x="157.15" y="147.56" class="black" >A</text></g>
<g><title>77 (position.label in template: 77.U)</title><text x="157.92" y="140.06" class="black" >U</text></g>
<g><title>78 (position.label in template: 78.U)</title><text x="161.11" y="133.21" class="black" >U</text></g>
<g><line x1="162.646" y1="131.55" x2="168.874" y2="126.066" class="black" /></g>
<g><title>79 (position.label in template: 79.C)</title><text x="156.05" y="127.59" class="black" >C</text></g>
<g><line x1="157.555" y1="125.896" x2="163.435" y2="120.48" class="black" /></g>
<g><title>80 (position.label in template: 80.C)</title><text x="150.99" y="121.97" class="black" >C</text></g>
<g><line x1="152.495" y1="120.276" x2="158.375" y2="114.86" class="black" /></g>
<g><title>81 (position.label in template: 81.A)</title><text x="146.14" y="116.35" class="black" >A</text></g>
<g><line x1="147.645" y1="114.656" x2="153.525" y2="109.24" class="black" /></g>
<g><title>82 (position.label in template: 82.G)</title><text x="140.67" y="110.73" class="black" >G</text></g>
<g><line x1="142.207" y1="109.071" x2="148.443" y2="103.585" class="black" /></g>
<g><title>83 (position.label in template: 83.G)</title><text x="135.61" y="105.11" class="black" >G</text></g>
<g><line x1="137.147" y1="103.451" x2="143.383" y2="97.9649" class="black" /></g>
<g><title>84 (position.label in template: 84.U)</title><text x="130.77" y="99.49" class="black" >U</text></g>
<g><line x1="132.306" y1="97.8302" x2="138.534" y2="92.3458" class="black" /></g>
<g><title>85 (position.label in template: 85.G)</title><text x="123" y="99.45" class="black" >G</text></g>
<g><title>86 (position.label in template: 86.U)</title><text x="116.8" y="95.44" class="black" >U</text></g>
<g><title>87 (position.label in template: 87.A)</title><text x="113.68" y="88.65" class="black" >A</text></g>
<g><title>88 (position.label in template: 88.G)</title><text x="114.03" y="81.12" class="black" >G</text></g>
<g><line x1="115.567" y1="79.4611" x2="121.793" y2="73.9848" class="black" /></g>
<g><title>89 (position.label in template: 89.C)</title><text x="109.18" y="75.5" class="black" >C</text></g>
<g><line x1="110.686" y1="73.807" x2="116.564" y2="68.3989" class="black" /></g>
<g><title>90 (position.label in template: 90.G)</title><text x="101.42" y="75.12" class="black" >G</text></g>
<g><title>91 (position.label in template: 91.G)</title><text x="95.36" y="70.6" class="black" >G</text></g>
<g><title>92 (position.label in template: 92.U)</title><text x="93.04" y="63.47" class="black" >U</text></g>
<g><title>93 (position.label in template: 93.G)</title><text x="94.69" y="56.14" class="black" >G</text></g>
<g><title>94 (position.label in template: 94.A)</title><text x="100.73" y="51.09" class="black" >A</text></g>
<g><title>95 (position.label in template: 95.A)</title><text x="108.21" y="50" class="black" >A</text></g>
<g><title>96 (position.label in template: 96.A)</title><text x="115.03" y="53.27" class="black" >A</text></g>
<g><title>97 (position.label in template: 97.U)</title><text x="118.68" y="59.77" class="black" >U</text></g>
<g><title>98 (position.label in template: 98.G)</title><text x="118.07" y="67.32" class="black" >G</text></g>
<g><title>99 (position.label in template: 99.C)</title><text x="123.33" y="72.94" class="black" >C</text></g>
<g><title>100 (position.label in template: 100.G)</title><text x="128.03" y="67.19" class="black" >G</text></g>
<g><text x="124.239" y="61.415" class="numbering-label sequential" >100</text></g>
<g><line x1="127.019" y1="65.65" x2="125.247" y2="62.9502" class="numbering-line sequential" /></g>
<g><title>101 (position.label in template: 101.U)</title><text x="135.47" y="64.97" class="black" >U</text></g>
<g><title>102 (position.label in template: 102.A)</title><text x="142.96" y="66.99" class="black" >A</text></g>
<g><title>103 (position.label in template: 103.G)</title><text x="147.6" y="72.61" class="black" >G</text></g>
<g><title>104 (position.label in template: 104.A)</title><text x="149.26" y="80.07" class="black" >A</text></g>
<g><title>105 (position.label in template: 105.G)</title><text x="145.89" y="87.03" class="black" >G</text></g>
<g><title>106 (position.label in template: 106.A)</title><text x="140.07" y="91.3" class="black" >A</text></g>
<g><title>107 (position.label in template: 107.U)</title><text x="144.92" y="96.92" class="black" >U</text></g>
<g><title>108 (position.label in template: 108.C)</title><text x="149.98" y="102.54" class="black" >C</text></g>
<g><title>109 (position.label in template: 109.U)</title><text x="155.03" y="108.16" class="black" >U</text></g>
<g><title>110 (position.label in template: 110.G)</title><text x="159.88" y="113.78" class="black" >G</text></g>
<g><title>111 (position.label in template: 111.G)</title><text x="164.94" y="119.4" class="black" >G</text></g>
<g><title>112 (position.label in template: 112.A)</title><text x="170.41" y="125.02" class="black" >A</text></g>
<g><title>113 (position.label in template: 113.G)</title><text x="177.15" y="122.57" class="black" >G</text></g>
<g><line x1="179.192" y1="122.409" x2="187.518" y2="123.007" class="black" /></g>
<g><title>114 (position.label in template: 114.G)</title><text x="177.69" y="115.03" class="black" >G</text></g>
<g><line x1="179.732" y1="114.869" x2="188.068" y2="115.467" class="black" /></g>
<g><title>115 (position.label in template: 115.A)</title><text x="176.47" y="107.65" class="black" >A</text></g>
<g><title>116 (position.label in template: 116.A)</title><text x="181.41" y="101.93" class="black" >A</text></g>
<g><title>117 (position.label in template: 117.U)</title><text x="188.74" y="102.48" class="black" >U</text></g>
<g><title>118 (position.label in template: 118.A)</title><text x="193.01" y="108.85" class="black" >A</text></g>
<g><title>119 (position.label in template: 119.C)</title><text x="190.11" y="115.92" class="black" >C</text></g>
<g><title>120 (position.label in template: 120.C)</title><text x="189.56" y="123.46" class="black" >C</text></g>
<g><title>121 (position.label in template: 121.G)</title><text x="196.08" y="126.91" class="black" >G</text></g>
<g><title>122 (position.label in template: 122.G)</title><text x="201.45" y="132.24" class="black" >G</text></g>
<g><title>123 (position.label in template: 123.U)</title><text x="205.17" y="138.93" class="black" >U</text></g>
<g><title>124 (position.label in template: 124.G)</title><text x="206.29" y="146.38" class="black" >G</text></g>
<g><title>125 (position.label in template: 125.G)</title><text x="205.32" y="153.87" class="black" >G</text></g>
<g><line x1="204.308" y1="155.342" x2="200.332" y2="162.334" class="black" /></g>
<g><title>126 (position.label in template: 126.C)</title><text x="212.04" y="157.71" class="black" >C</text></g>
<g><line x1="210.976" y1="159.152" x2="206.684" y2="166.204" class="black" /></g>
<g><title>127 (position.label in template: 127.G)</title><text x="219.17" y="159.51" class="black" >G</text></g>
<g><title>128 (position.label in template: 128.A)</title><text x="222.53" y="166.47" class="black" >A</text></g>
<g><title>129 (position.label in template: 129.A)</title><text x="218.7" y="172.99" class="black" >A</text></g>
<g><title>130 (position.label in template: 130.G)</title><text x="210.76" y="173.8" class="black" >G</text></g>
<g><title>131 (position.label in template: 131.G)</title><text x="205.62" y="168.26" class="black" >G</text></g>
<g><title>132 (position.label in template: 132.C)</title><text x="199.32" y="164.42" class="black" >C</text></g>
<g><title>133 (position.label in template: 133.G)</title><text x="193.03" y="168.91" class="black" >G</text></g>
<g><title>134 (position.label in template: 134.G)</title><text x="185.88" y="171.36" class="black" >G</text></g>
<g><title>135 (position.label in template: 135.C)</title><text x="185.54" y="178.9" class="black" >C</text></g>
<g><title>136 (position.label in template: 136.C)</title><text x="184.99" y="186.45" class="black" >C</text></g>
<g><title>137 (position.label in template: 137.C)</title><text x="184.44" y="193.99" class="black" >C</text></g>
<g><title>138 (position.label in template: 138.C)</title><text x="183.9" y="201.52" class="black" >C</text></g>
<g><title>139 (position.label in template: 139.C)</title><text x="183.35" y="209.06" class="black" >C</text></g>
<g><title>140 (position.label in template: 140.U)</title><text x="182.8" y="216.61" class="black" >U</text></g>
<g><title>141 (position.label in template: 141.G)</title><text x="186.86" y="222.85" class="black" >G</text></g>
<g><title>142 (position.label in template: 142.G)</title><text x="186.31" y="230.39" class="black" >G</text></g>
<g><title>143 (position.label in template: 143.A)</title><text x="181.6" y="235.95" class="black" >A</text></g>
<g><title>144 (position.label in template: 144.C)</title><text x="180.85" y="243.49" class="black" >C</text></g>
<g><title>145 (position.label in template: 145.G)</title><text x="180.09" y="251.03" class="black" >G</text></g>
<g><title>146 (position.label in template: 146.A)</title><text x="186.76" y="255.27" class="black" >A</text></g>
<g><title>147 (position.label in template: 147.A)</title><text x="179.96" y="258.57" class="black" >A</text></g>
<g><title>148 (position.label in template: 148.G)</title><text x="179" y="266.11" class="black" >G</text></g>
<g><title>149 (position.label in template: 149.A)</title><text x="178.87" y="273.65" class="black" >A</text></g>
<g><title>150 (position.label in template: 150.C)</title><text x="178.11" y="281.19" class="black" >C</text></g>
<g><text x="184.992" y="281.788" class="numbering-label sequential" >150</text></g>
<g><line x1="179.945" y1="281.349" x2="182.229" y2="281.548" class="numbering-line sequential" /></g>
<g><title>151 (position.label in template: 151.U)</title><text x="177.56" y="288.73" class="black" >U</text></g>
<g><title>152 (position.label in template: 152.G)</title><text x="179.95" y="295.83" class="black" >G</text></g>
<g><title>153 (position.label in template: 153.A)</title><text x="176.77" y="302.48" class="black" >A</text></g>
<g><title>154 (position.label in template: 154.C)</title><text x="179.16" y="309.59" class="black" >C</text></g>
<g><title>155 (position.label in template: 155.G)</title><text x="175.36" y="316.24" class="black" >G</text></g>
<g><title>156 (position.label in template: 156.C)</title><text x="175.02" y="323.78" class="black" >C</text></g>
<g><title>157 (position.label in template: 157.U)</title><text x="174.47" y="331.32" class="black" >U</text></g>
<g><title>158 (position.label in template: 158.C)</title><text x="180.41" y="336.01" class="black" >C</text></g>
<g><title>159 (position.label in template: 159.A)</title><text x="183.91" y="342.81" class="black" >A</text></g>
<g><title>160 (position.label in template: 160.G)</title><text x="183.49" y="350.37" class="black" >G</text></g>
<g><title>161 (position.label in template: 161.G)</title><text x="180.19" y="357.17" class="black" >G</text></g>
<g><title>162 (position.label in template: 162.U)</title><text x="174.47" y="361.86" class="black" >U</text></g>
<g><title>163 (position.label in template: 163.G)</title><text x="166.88" y="363.49" class="black" >G</text></g>
<g><line x1="164.983" y1="362.413" x2="157.617" y2="359.423" class="black" /></g>
<g><title>164 (position.label in template: 164.C)</title><text x="164.3" y="370.51" class="black" >C</text></g>
<g><line x1="162.393" y1="369.459" x2="154.617" y2="366.427" class="black" /></g>
<g><title>165 (position.label in template: 165.G)</title><text x="163.43" y="378.04" class="black" >G</text></g>
<g><title>166 (position.label in template: 166.A)</title><text x="157.41" y="382.01" class="black" >A</text></g>
<g><title>167 (position.label in template: 167.A)</title><text x="150.39" y="379.22" class="black" >A</text></g>
<g><title>168 (position.label in template: 168.A)</title><text x="148.43" y="371.91" class="black" >A</text></g>
<g><title>169 (position.label in template: 169.G)</title><text x="152.71" y="365.99" class="black" >G</text></g>
<g><title>170 (position.label in template: 170.C)</title><text x="155.72" y="358.96" class="black" >C</text></g>
<g><title>171 (position.label in template: 171.G)</title><text x="151.26" y="352.71" class="black" >G</text></g>
<g><title>172 (position.label in template: 172.U)</title><text x="143.91" y="352.71" class="black" >U</text></g>
<g><title>173 (position.label in template: 173.G)</title><text x="136.81" y="355.81" class="black" >G</text></g>
<g><title>174 (position.label in template: 174.G)</title><text x="129.91" y="352.71" class="black" >G</text></g>
<g><title>175 (position.label in template: 175.G)</title><text x="122.35" y="352.71" class="black" >G</text></g>
<g><title>176 (position.label in template: 176.G)</title><text x="117.27" y="358.3" class="black" >G</text></g>
<g><title>177 (position.label in template: 177.A)</title><text x="110.41" y="360.38" class="black" >A</text></g>
<g><title>178 (position.label in template: 178.G)</title><text x="102.73" y="358.3" class="black" >G</text></g>
<g><title>179 (position.label in template: 179.C)</title><text x="97.85" y="352.71" class="black" >C</text></g>
<g><title>180 (position.label in template: 180.A)</title><text x="90.5" y="352.71" class="black" >A</text></g>
<g><title>181 (position.label in template: 181.A)</title><text x="85.15" y="358.05" class="black" >A</text></g>
<g><title>182 (position.label in template: 182.A)</title><text x="85.15" y="365.61" class="black" >A</text></g>
<g><title>183 (position.label in template: 183.C)</title><text x="90.29" y="370.96" class="black" >C</text></g>
<g><line x1="90.2549" y1="372.7" x2="90.1151" y2="380.846" class="black" /></g>
<g><title>184 (position.label in template: 184.A)</title><text x="98.06" y="370.96" class="black" >A</text></g>
<g><line x1="98.0249" y1="372.7" x2="97.8851" y2="380.846" class="black" /></g>
<g><title>185 (position.label in template: 185.G)</title><text x="105.2" y="370.96" class="black" >G</text></g>
<g><line x1="105.235" y1="372.7" x2="105.375" y2="380.846" class="black" /></g>
<g><title>186 (position.label in template: 186.G)</title><text x="112.76" y="370.96" class="black" >G</text></g>
<g><line x1="112.795" y1="372.7" x2="112.935" y2="380.846" class="black" /></g>
<g><title>187 (position.label in template: 187.A)</title><text x="118.14" y="365.25" class="black" >A</text></g>
<g><title>188 (position.label in template: 188.U)</title><text x="125.12" y="362.9" class="black" >U</text></g>
<g><title>189 (position.label in template: 189.U)</title><text x="132.49" y="364.57" class="black" >U</text></g>
<g><title>190 (position.label in template: 190.A)</title><text x="138.17" y="369.79" class="black" >A</text></g>
<g><title>191 (position.label in template: 191.G)</title><text x="139.76" y="377.08" class="black" >G</text></g>
<g><title>192 (position.label in template: 192.A)</title><text x="138.17" y="384.37" class="black" >A</text></g>
<g><title>193 (position.label in template: 193.U)</title><text x="132.49" y="389.59" class="black" >U</text></g>
<g><title>194 (position.label in template: 194.A)</title><text x="125.32" y="391.26" class="black" >A</text></g>
<g><title>195 (position.label in template: 195.C)</title><text x="117.93" y="388.91" class="black" >C</text></g>
<g><title>196 (position.label in template: 196.C)</title><text x="112.97" y="383.2" class="black" >C</text></g>
<g><title>197 (position.label in template: 197.C)</title><text x="105.41" y="383.2" class="black" >C</text></g>
<g><title>198 (position.label in template: 198.U)</title><text x="97.85" y="383.2" class="black" >U</text></g>
<g><title>199 (position.label in template: 199.G)</title><text x="90.08" y="383.2" class="black" >G</text></g>
<g><title>200 (position.label in template: 200.G)</title><text x="84.7425" y="388.547" class="black" >G</text></g>
<g><title>201 (position.label in template: 201.3')</title><text x="77.1876" y="388.465" class="green" >3'</text></g>
<g><line x1="66.8444" y1="334.973" x2="67.0365" y2="331.517" class="gray" /></g>
<g><line x1="67.2635" y1="327.429" x2="67.4565" y2="323.957" class="gray" /></g>
<g><line x1="67.5132" y1="319.867" x2="67.4168" y2="316.399" class="gray" /></g>
<g><line x1="67.3032" y1="312.307" x2="67.2068" y2="308.839" class="gray" /></g>
<g><line x1="67.2068" y1="304.747" x2="67.3032" y2="301.279" class="gray" /></g>
<g><line x1="65.317" y1="299.106" x2="61.653" y2="298.879" class="gray" /></g>
<g><line x1="57.9161" y1="297.604" x2="55.3339" y2="295.852" class="gray" /></g>
<g><line x1="52.6549" y1="292.909" x2="50.9851" y2="289.867" class="gray" /></g>
<g><line x1="50" y1="286.026" x2="50" y2="282.56" class="gray" /></g>
<g><line x1="50.9417" y1="278.696" x2="52.4883" y2="275.71" class="gray" /></g>
<g><line x1="55.1577" y1="272.795" x2="58.0923" y2="270.931" class="gray" /></g>
<g><line x1="61.8629" y1="269.706" x2="65.3171" y2="269.49" class="gray" /></g>
<g><line x1="67.36" y1="267.316" x2="67.36" y2="263.85" class="gray" /></g>
<g><line x1="67.36" y1="259.756" x2="67.36" y2="256.29" class="gray" /></g>
<g><line x1="67.3032" y1="252.197" x2="67.2068" y2="248.729" class="gray" /></g>
<g><line x1="67.15" y1="244.636" x2="67.15" y2="241.17" class="gray" /></g>
<g><line x1="67.15" y1="237.076" x2="67.15" y2="233.61" class="gray" /></g>
<g><line x1="66.2765" y1="229.712" x2="64.8335" y2="226.654" class="gray" /></g>
<g><line x1="64.6591" y1="222.879" x2="65.8409" y2="219.627" class="gray" /></g>
<g><line x1="68.4189" y1="216.891" x2="71.6011" y2="215.515" class="gray" /></g>
<g><line x1="75.3675" y1="215.495" x2="78.7425" y2="216.911" class="gray" /></g>
<g><line x1="81.3291" y1="219.627" x2="82.5109" y2="222.879" class="gray" /></g>
<g><line x1="82.2458" y1="226.609" x2="80.5642" y2="229.757" class="gray" /></g>
<g><line x1="79.6" y1="233.61" x2="79.6" y2="237.076" class="gray" /></g>
<g><line x1="79.6" y1="241.17" x2="79.6" y2="244.636" class="gray" /></g>
<g><line x1="79.5432" y1="248.729" x2="79.4468" y2="252.197" class="gray" /></g>
<g><line x1="79.39" y1="256.29" x2="79.39" y2="259.756" class="gray" /></g>
<g><line x1="79.39" y1="263.85" x2="79.39" y2="267.316" class="gray" /></g>
<g><line x1="81.0867" y1="270.508" x2="84.2433" y2="272.638" class="gray" /></g>
<g><line x1="86.8716" y1="275.606" x2="88.4484" y2="278.69" class="gray" /></g>
<g><line x1="89.3232" y1="282.559" x2="89.2268" y2="286.027" class="gray" /></g>
<g><line x1="88.2384" y1="289.896" x2="86.6616" y2="292.98" class="gray" /></g>
<g><line x1="84.0521" y1="295.975" x2="81.0679" y2="298.061" class="gray" /></g>
<g><line x1="79.4468" y1="301.279" x2="79.5432" y2="304.747" class="gray" /></g>
<g><line x1="79.6568" y1="308.839" x2="79.7532" y2="312.307" class="gray" /></g>
<g><line x1="79.7532" y1="316.399" x2="79.6568" y2="319.867" class="gray" /></g>
<g><line x1="79.6" y1="323.96" x2="79.6" y2="327.426" class="gray" /></g>
<g><line x1="81.0474" y1="330.92" x2="88.8426" y2="338.716" class="gray" /></g>
<g><line x1="92.3369" y1="340.163" x2="95.5931" y2="340.163" class="gray" /></g>
<g><line x1="99.0743" y1="338.703" x2="101.706" y2="336.023" class="gray" /></g>
<g><line x1="105.104" y1="333.988" x2="108.246" y2="333.068" class="gray" /></g>
<g><line x1="112.183" y1="333.04" x2="115.707" y2="334.016" class="gray" /></g>
<g><line x1="119.025" y1="336.106" x2="121.215" y2="338.62" class="gray" /></g>
<g><line x1="124.607" y1="340.163" x2="128.073" y2="340.163" class="gray" /></g>
<g><line x1="131.977" y1="339.302" x2="134.953" y2="337.924" class="gray" /></g>
<g><line x1="138.677" y1="337.903" x2="141.833" y2="339.323" class="gray" /></g>
<g><line x1="145.747" y1="340.163" x2="149.423" y2="340.163" class="gray" /></g>
<g><line x1="152.656" y1="338.495" x2="154.734" y2="335.571" class="gray" /></g>
<g><line x1="157.693" y1="332.88" x2="160.697" y2="331.146" class="gray" /></g>
<g><line x1="162.505" y1="328.076" x2="162.565" y2="324.63" class="gray" /></g>
<g><line x1="162.805" y1="320.546" x2="163.155" y2="317.08" class="gray" /></g>
<g><line x1="162.659" y1="313.12" x2="161.471" y2="309.866" class="gray" /></g>
<g><line x1="161.742" y1="306.142" x2="163.388" y2="303.094" class="gray" /></g>
<g><line x1="163.609" y1="299.389" x2="162.311" y2="296.097" class="gray" /></g>
<g><line x1="162.614" y1="292.438" x2="164.506" y2="289.288" class="gray" /></g>
<g><line x1="165.595" y1="285.486" x2="165.655" y2="282.04" class="gray" /></g>
<g><line x1="165.895" y1="277.956" x2="166.245" y2="274.49" class="gray" /></g>
<g><line x1="166.599" y1="270.411" x2="166.851" y2="266.954" class="gray" /></g>
<g><line x1="167.149" y1="262.871" x2="167.401" y2="259.414" class="gray" /></g>
<g><line x1="167.696" y1="255.331" x2="167.944" y2="251.875" class="gray" /></g>
<g><line x1="168.182" y1="247.788" x2="168.338" y2="244.338" class="gray" /></g>
<g><line x1="168.635" y1="240.256" x2="168.985" y2="236.79" class="gray" /></g>
<g><line x1="167.351" y1="233.854" x2="164.399" y2="232.412" class="gray" /></g>
<g><line x1="161.802" y1="229.612" x2="160.468" y2="226.264" class="gray" /></g>
<g><line x1="160.728" y1="222.587" x2="162.552" y2="219.409" class="gray" /></g>
<g><line x1="165.516" y1="216.999" x2="168.434" y2="216.047" class="gray" /></g>
<g><line x1="170.529" y1="213.371" x2="170.781" y2="209.914" class="gray" /></g>
<g><line x1="171.079" y1="205.831" x2="171.331" y2="202.374" class="gray" /></g>
<g><line x1="171.629" y1="198.291" x2="171.881" y2="194.834" class="gray" /></g>
<g><line x1="172.176" y1="190.751" x2="172.424" y2="187.295" class="gray" /></g>
<g><line x1="172.719" y1="183.211" x2="172.971" y2="179.754" class="gray" /></g>
<g><line x1="173.325" y1="175.676" x2="173.675" y2="172.21" class="gray" /></g>
<g><line x1="172.072" y1="169.213" x2="169.168" y2="167.672" class="gray" /></g>
<g><line x1="165.854" y1="165.327" x2="163.086" y2="162.779" class="gray" /></g>
<g><line x1="160.72" y1="159.535" x2="159.34" y2="156.551" class="gray" /></g>
<g><line x1="158.12" y1="152.678" x2="157.51" y2="149.268" class="gray" /></g>
<g><line x1="157.359" y1="145.217" x2="157.711" y2="141.789" class="gray" /></g>
<g><line x1="158.784" y1="137.897" x2="160.246" y2="134.759" class="gray" /></g>
<g><line x1="159.74" y1="131.382" x2="157.42" y2="128.804" class="gray" /></g>
<g><line x1="154.68" y1="125.762" x2="152.36" y2="123.184" class="gray" /></g>
<g><line x1="149.653" y1="120.113" x2="147.477" y2="117.593" class="gray" /></g>
<g><line x1="144.712" y1="114.576" x2="142.098" y2="111.89" class="gray" /></g>
<g><line x1="139.3" y1="108.902" x2="136.98" y2="106.324" class="gray" /></g>
<g><line x1="134.274" y1="103.252" x2="132.106" y2="100.734" class="gray" /></g>
<g><line x1="128.723" y1="99.1724" x2="125.047" y2="99.1535" class="gray" /></g>
<g><line x1="121.281" y1="98.0313" x2="118.519" y2="96.2446" class="gray" /></g>
<g><line x1="115.945" y1="93.273" x2="114.535" y2="90.2029" class="gray" /></g>
<g><line x1="113.775" y1="86.2983" x2="113.935" y2="82.8576" class="gray" /></g>
<g><line x1="112.693" y1="79.2633" x2="110.517" y2="76.7426" class="gray" /></g>
<g><line x1="107.136" y1="75.0929" x2="103.464" y2="74.9131" class="gray" /></g>
<g><line x1="99.7792" y1="73.5892" x2="97.0008" y2="71.5168" class="gray" /></g>
<g><line x1="94.7267" y1="68.3465" x2="93.6733" y2="65.1094" class="gray" /></g>
<g><line x1="93.4895" y1="61.166" x2="94.2405" y2="57.8299" class="gray" /></g>
<g><line x1="96.2603" y1="54.52" x2="99.1597" y2="52.0959" class="gray" /></g>
<g><line x1="102.755" y1="50.4878" x2="106.185" y2="49.9881" class="gray" /></g>
<g><line x1="110.056" y1="50.5779" x2="113.184" y2="52.078" class="gray" /></g>
<g><line x1="116.032" y1="54.7477" x2="117.678" y2="57.6782" class="gray" /></g>
<g><line x1="118.515" y1="61.5032" x2="118.235" y2="64.9727" class="gray" /></g>
<g><line x1="119.469" y1="68.5074" x2="121.931" y2="71.1385" class="gray" /></g>
<g><line x1="124.625" y1="71.0481" x2="126.735" y2="68.4678" class="gray" /></g>
<g><line x1="129.991" y1="66.2977" x2="133.509" y2="65.2482" class="gray" /></g>
<g><line x1="137.446" y1="65.196" x2="140.984" y2="66.15" class="gray" /></g>
<g><line x1="144.263" y1="68.2614" x2="146.297" y2="70.7245" class="gray" /></g>
<g><line x1="148.045" y1="74.301" x2="148.815" y2="77.7649" class="gray" /></g>
<g><line x1="148.368" y1="81.6053" x2="146.782" y2="84.8807" class="gray" /></g>
<g><line x1="144.24" y1="87.9338" x2="141.72" y2="89.7821" class="gray" /></g>
<g><line x1="141.407" y1="92.5426" x2="143.583" y2="95.0633" class="gray" /></g>
<g><line x1="146.29" y1="98.1341" x2="148.61" y2="100.712" class="gray" /></g>
<g><line x1="151.348" y1="103.755" x2="153.662" y2="106.33" class="gray" /></g>
<g><line x1="156.367" y1="109.403" x2="158.543" y2="111.923" class="gray" /></g>
<g><line x1="161.25" y1="114.994" x2="163.57" y2="117.572" class="gray" /></g>
<g><line x1="166.368" y1="120.56" x2="168.982" y2="123.246" class="gray" /></g>
<g><line x1="172.334" y1="124.014" x2="175.226" y2="122.962" class="gray" /></g>
<g><line x1="177.296" y1="120.221" x2="177.544" y2="116.765" class="gray" /></g>
<g><line x1="177.356" y1="112.703" x2="176.804" y2="109.362" class="gray" /></g>
<g><line x1="177.808" y1="105.794" x2="180.072" y2="103.172" class="gray" /></g>
<g><line x1="183.451" y1="101.776" x2="186.699" y2="102.02" class="gray" /></g>
<g><line x1="189.88" y1="103.873" x2="191.87" y2="106.843" class="gray" /></g>
<g><line x1="192.233" y1="110.437" x2="190.887" y2="113.719" class="gray" /></g>
<g><line x1="189.961" y1="117.654" x2="189.709" y2="121.111" class="gray" /></g>
<g><line x1="191.369" y1="124.11" x2="194.271" y2="125.646" class="gray" /></g>
<g><line x1="197.533" y1="128.045" x2="199.997" y2="130.491" class="gray" /></g>
<g><line x1="202.445" y1="133.722" x2="204.175" y2="136.834" class="gray" /></g>
<g><line x1="205.474" y1="140.647" x2="205.986" y2="144.049" class="gray" /></g>
<g><line x1="206.027" y1="148.103" x2="205.583" y2="151.533" class="gray" /></g>
<g><line x1="207.097" y1="154.579" x2="210.263" y2="156.387" class="gray" /></g>
<g><line x1="214.025" y1="157.904" x2="217.185" y2="158.702" class="gray" /></g>
<g><line x1="220.06" y1="161.046" x2="221.64" y2="164.32" class="gray" /></g>
<g><line x1="221.493" y1="167.928" x2="219.737" y2="170.918" class="gray" /></g>
<g><line x1="216.664" y1="172.891" x2="212.796" y2="173.285" class="gray" /></g>
<g><line x1="209.368" y1="171.992" x2="207.012" y2="169.453" class="gray" /></g>
<g><line x1="203.872" y1="166.888" x2="201.068" y2="165.178" class="gray" /></g>
<g><line x1="197.654" y1="165.302" x2="194.696" y2="167.414" class="gray" /></g>
<g><line x1="191.094" y1="169.266" x2="187.816" y2="170.389" class="gray" /></g>
<g><line x1="185.788" y1="173.098" x2="185.632" y2="176.548" class="gray" /></g>
<g><line x1="185.391" y1="180.634" x2="185.139" y2="184.101" class="gray" /></g>
<g><line x1="184.841" y1="188.184" x2="184.589" y2="191.641" class="gray" /></g>
<g><line x1="184.294" y1="195.725" x2="184.046" y2="199.171" class="gray" /></g>
<g><line x1="183.751" y1="203.254" x2="183.499" y2="206.711" class="gray" /></g>
<g><line x1="183.201" y1="210.794" x2="182.949" y2="214.261" class="gray" /></g>
<g><line x1="183.916" y1="218.019" x2="185.744" y2="220.827" class="gray" /></g>
<g><line x1="186.711" y1="224.584" x2="186.459" y2="228.041" class="gray" /></g>
<g><line x1="184.987" y1="231.645" x2="182.923" y2="234.081" class="gray" /></g>
<g><line x1="181.397" y1="237.68" x2="181.053" y2="241.146" class="gray" /></g>
<g><line x1="180.645" y1="245.22" x2="180.295" y2="248.686" class="gray" /></g>
<g><line x1="181.817" y1="251.821" x2="185.033" y2="253.865" class="gray" /></g>
<g><line x1="184.919" y1="255.857" x2="181.801" y2="257.369" class="gray" /></g>
<g><line x1="179.701" y1="260.293" x2="179.259" y2="263.772" class="gray" /></g>
<g><line x1="178.965" y1="267.85" x2="178.905" y2="271.296" class="gray" /></g>
<g><line x1="178.665" y1="275.38" x2="178.315" y2="278.846" class="gray" /></g>
<g><line x1="177.961" y1="282.924" x2="177.709" y2="286.381" class="gray" /></g>
<g><line x1="178.213" y1="290.363" x2="179.297" y2="293.583" class="gray" /></g>
<g><line x1="179.067" y1="297.37" x2="177.653" y2="300.326" class="gray" /></g>
<g><line x1="177.422" y1="304.113" x2="178.508" y2="307.343" class="gray" /></g>
<g><line x1="178.144" y1="311.06" x2="176.376" y2="314.156" class="gray" /></g>
<g><line x1="175.268" y1="317.978" x2="175.112" y2="321.428" class="gray" /></g>
<g><line x1="174.871" y1="325.514" x2="174.619" y2="328.971" class="gray" /></g>
<g><line x1="176.076" y1="332.281" x2="178.804" y2="334.435" class="gray" /></g>
<g><line x1="181.347" y1="337.523" x2="182.973" y2="340.683" class="gray" /></g>
<g><line x1="183.796" y1="344.547" x2="183.604" y2="348.019" class="gray" /></g>
<g><line x1="182.596" y1="351.904" x2="181.084" y2="355.021" class="gray" /></g>
<g><line x1="178.607" y1="358.161" x2="176.053" y2="360.255" class="gray" /></g>
<g><line x1="172.469" y1="361.983" x2="168.881" y2="362.753" class="gray" /></g>
<g><line x1="166.174" y1="365.104" x2="165.006" y2="368.282" class="gray" /></g>
<g><line x1="164.065" y1="372.236" x2="163.665" y2="375.7" class="gray" /></g>
<g><line x1="161.721" y1="378.86" x2="159.119" y2="380.576" class="gray" /></g>
<g><line x1="155.508" y1="380.947" x2="152.292" y2="379.669" class="gray" /></g>
<g><line x1="149.86" y1="376.936" x2="148.96" y2="373.58" class="gray" /></g>
<g><line x1="149.629" y1="369.944" x2="151.511" y2="367.342" class="gray" /></g>
<g><line x1="153.516" y1="363.801" x2="154.914" y2="360.535" class="gray" /></g>
<g><line x1="154.531" y1="356.987" x2="152.449" y2="354.069" class="gray" /></g>
<g><line x1="149.213" y1="352.403" x2="145.957" y2="352.403" class="gray" /></g>
<g><line x1="142.034" y1="353.222" x2="138.686" y2="354.684" class="gray" /></g>
<g><line x1="134.943" y1="354.664" x2="131.777" y2="353.242" class="gray" /></g>
<g><line x1="127.863" y1="352.403" x2="124.397" y2="352.403" class="gray" /></g>
<g><line x1="120.973" y1="353.918" x2="118.647" y2="356.478" class="gray" /></g>
<g><line x1="115.311" y1="358.587" x2="112.369" y2="359.479" class="gray" /></g>
<g><line x1="108.434" y1="359.538" x2="104.706" y2="358.528" class="gray" /></g>
<g><line x1="101.384" y1="356.451" x2="99.1961" y2="353.945" class="gray" /></g>
<g><line x1="95.8031" y1="352.403" x2="92.5469" y2="352.403" class="gray" /></g>
<g><line x1="89.0513" y1="353.849" x2="86.5987" y2="356.297" class="gray" /></g>
<g><line x1="85.15" y1="359.79" x2="85.15" y2="363.256" class="gray" /></g>
<g><line x1="86.5681" y1="366.779" x2="88.8719" y2="369.177" class="gray" /></g>
<g><line x1="92.3369" y1="370.653" x2="96.0131" y2="370.653" class="gray" /></g>
<g><line x1="100.107" y1="370.653" x2="103.153" y2="370.653" class="gray" /></g>
<g><line x1="107.247" y1="370.653" x2="110.713" y2="370.653" class="gray" /></g>
<g><line x1="114.164" y1="369.163" x2="116.736" y2="366.433" class="gray" /></g>
<g><line x1="120.08" y1="364.29" x2="123.18" y2="363.246" class="gray" /></g>
<g><line x1="127.116" y1="363.045" x2="130.494" y2="363.811" class="gray" /></g>
<g><line x1="133.997" y1="365.648" x2="136.663" y2="368.098" class="gray" /></g>
<g><line x1="138.606" y1="371.483" x2="139.324" y2="374.773" class="gray" /></g>
<g><line x1="139.324" y1="378.773" x2="138.606" y2="382.063" class="gray" /></g>
<g><line x1="136.663" y1="385.448" x2="133.997" y2="387.898" class="gray" /></g>
<g><line x1="130.496" y1="389.747" x2="127.314" y2="390.489" class="gray" /></g>
<g><line x1="123.369" y1="390.333" x2="119.881" y2="389.223" class="gray" /></g>
<g><line x1="116.588" y1="387.058" x2="114.312" y2="384.438" class="gray" /></g>
<g><line x1="110.923" y1="382.893" x2="107.457" y2="382.893" class="gray" /></g>
<g><line x1="103.363" y1="382.893" x2="99.8969" y2="382.893" class="gray" /></g>
<g><line x1="95.8031" y1="382.893" x2="92.1269" y2="382.893" class="gray" /></g>
<g><line x1="88.634" y1="384.342" x2="86.1885" y2="386.792" class="gray" /></g>
<g><line x1="82.6958" y1="388.218" x2="79.2343" y2="388.18" class="gray" /></g>
</svg>
