<svg
	xmlns="http://www.w3.org/2000/svg"
	width="319.92"
	height="312.492">
<g><style type="text/css" >
<!-- create color definitions -->
<![CDATA[
circle.red {stroke: rgb(255, 0, 255); fill: none; }
circle.green {stroke: rgb(0, 255, 0); fill: none; }
circle.blue {stroke: rgb(0, 0, 255); fill: none; }
circle.black {stroke: rgb(0, 0, 0); fill: none; }
circle.gray {stroke: rgb(204, 204, 204); fill: none; }
circle.brown {stroke: rgb(211.65, 104.55, 30.6); fill: none; }
line.red {stroke: rgb(255, 0, 255); stroke-width: 0.382599; }
line.green {stroke: rgb(0, 255, 0); stroke-width: 0.382599; }
line.blue {stroke: rgb(0, 0, 255); stroke-width: 0.382599; }
line.black {stroke: rgb(0, 0, 0); stroke-width: 0.382599; }
line.gray {stroke: rgb(204, 204, 204); stroke-width: 0.382599; }
line.brown {stroke: rgb(211.65, 104.55, 30.6); stroke-width: 0.382599; }
line {stroke: rgb(0, 0, 0); }
text.red {fill: rgb(255, 0, 255); font-size: 3.060793px; font-weight: bold; font-family: Helvetica; }
text.green {fill: rgb(0, 255, 0); font-size: 3.060793px; font-weight: bold; font-family: Helvetica; }
text.blue {fill: rgb(0, 0, 255); font-size: 3.060793px; font-weight: bold; font-family: Helvetica; }
text.black {fill: rgb(0, 0, 0); font-size: 3.060793px; font-weight: bold; font-family: Helvetica; }
text.gray {fill: rgb(204, 204, 204); font-size: 3.060793px; font-weight: bold; font-family: Helvetica; }
text.brown {fill: rgb(211.65, 104.55, 30.6); font-size: 3.060793px; font-weight: bold; font-family: Helvetica; }
text {fill: rgb(0, 0, 0); font-size: 3.060793px; font-weight: bold; font-family: Helvetica; text-anchor: middle; alignment-baseline: middle; }

.pseudoknot_connection{stroke-linecap: round; stroke-opacity: 0.2; stroke-width: 1.5; }
.pseudoknot_segment1{stroke-linecap: round; stroke-opacity: 0.4; stroke-width: 3.06079; }
.pseudoknot_segment2{stroke-linecap: round; stroke-opacity: 0.4; stroke-width: 3.06079; }
line.numbering-line{stroke: rgb(204, 204, 204); stroke-width: 0.1913; }
line.predicted{stroke: rgb(0, 0, 0); stroke-dasharray: 2; }
polyline{fill: none; stroke-linejoin: round; }
template{visibility: hidden; }
text.numbering-label{fill: rgb(204, 204, 204); }
]]>
</style></g>
<g><title>0 (position.label in template: 0.5')</title><text x="73.9006" y="264.69" class="green" >5'</text></g>
<g><title>1 (position.label in template: 1.G)</title><text x="74.32" y="257.14" class="black" >G</text></g>
<g><line x1="76.3605" y1="256.834" x2="84.7295" y2="256.834" class="black" /></g>
<g><title>2 (position.label in template: 2.A)</title><text x="74.74" y="249.58" class="black" >A</text></g>
<g><line x1="76.7805" y1="249.274" x2="84.7295" y2="249.274" class="black" /></g>
<g><title>3 (position.label in template: 3.U)</title><text x="74.53" y="242.02" class="black" >U</text></g>
<g><line x1="76.5705" y1="241.714" x2="84.9395" y2="241.714" class="black" /></g>
<g><title>4 (position.label in template: 4.G)</title><text x="74.32" y="234.46" class="black" >G</text></g>
<g><line x1="76.3605" y1="234.154" x2="84.7295" y2="234.154" class="black" /></g>
<g><title>5 (position.label in template: 5.U)</title><text x="66.99" y="233.99" class="black" >U</text></g>
<g><title>6 (position.label in template: 6.G)</title><text x="60.12" y="230.41" class="black" >G</text></g>
<g><title>7 (position.label in template: 7.A)</title><text x="55.98" y="224.38" class="black" >A</text></g>
<g><title>8 (position.label in template: 8.A)</title><text x="54.36" y="216.99" class="black" >A</text></g>
<g><title>9 (position.label in template: 9.A)</title><text x="55.98" y="209.61" class="black" >A</text></g>
<g><title>10 (position.label in template: 10.G)</title><text x="60.12" y="203.57" class="black" >G</text></g>
<g><text x="55.5887" y="198.384" class="numbering-label sequential" >10</text></g>
<g><line x1="58.9117" y1="202.187" x2="56.9259" y2="199.914" class="numbering-line sequential" /></g>
<g><title>11 (position.label in template: 11.C)</title><text x="66.99" y="199.99" class="black" >C</text></g>
<g><title>12 (position.label in template: 12.C)</title><text x="74.53" y="199.52" class="black" >C</text></g>
<g><line x1="76.5705" y1="199.214" x2="84.5195" y2="199.214" class="black" /></g>
<g><title>13 (position.label in template: 13.C)</title><text x="74.53" y="191.96" class="black" >C</text></g>
<g><line x1="76.5705" y1="191.654" x2="84.5195" y2="191.654" class="black" /></g>
<g><title>14 (position.label in template: 14.C)</title><text x="74.53" y="184.4" class="black" >C</text></g>
<g><line x1="76.5705" y1="184.094" x2="84.5195" y2="184.094" class="black" /></g>
<g><title>15 (position.label in template: 15.C)</title><text x="74.53" y="176.84" class="black" >C</text></g>
<g><line x1="76.5705" y1="176.534" x2="84.5195" y2="176.534" class="black" /></g>
<g><title>16 (position.label in template: 16.G)</title><text x="74.32" y="169.28" class="black" >G</text></g>
<g><line x1="76.3605" y1="168.974" x2="84.7295" y2="168.974" class="black" /></g>
<g><title>17 (position.label in template: 17.G)</title><text x="74.32" y="161.72" class="black" >G</text></g>
<g><line x1="76.3605" y1="161.414" x2="84.7295" y2="161.414" class="black" /></g>
<g><title>18 (position.label in template: 18.C)</title><text x="71.13" y="154.97" class="black" >C</text></g>
<g><title>19 (position.label in template: 19.U)</title><text x="73.71" y="147.86" class="black" >U</text></g>
<g><title>20 (position.label in template: 20.C)</title><text x="80.65" y="144.87" class="black" >C</text></g>
<g><text x="80.65" y="137.983" class="numbering-label sequential" >20</text></g>
<g><line x1="80.65" y1="143.034" x2="80.65" y2="139.514" class="numbering-line sequential" /></g>
<g><title>21 (position.label in template: 21.A)</title><text x="87.8" y="147.86" class="black" >A</text></g>
<g><title>22 (position.label in template: 22.A)</title><text x="90.38" y="154.97" class="black" >A</text></g>
<g><title>23 (position.label in template: 23.C)</title><text x="86.77" y="161.72" class="black" >C</text></g>
<g><title>24 (position.label in template: 24.C)</title><text x="86.77" y="169.28" class="black" >C</text></g>
<g><title>25 (position.label in template: 25.G)</title><text x="86.56" y="176.84" class="black" >G</text></g>
<g><title>26 (position.label in template: 26.G)</title><text x="86.56" y="184.4" class="black" >G</text></g>
<g><title>27 (position.label in template: 27.G)</title><text x="86.56" y="191.96" class="black" >G</text></g>
<g><title>28 (position.label in template: 28.G)</title><text x="86.56" y="199.52" class="black" >G</text></g>
<g><title>29 (position.label in template: 29.A)</title><text x="93.45" y="203.43" class="black" >A</text></g>
<g><title>30 (position.label in template: 30.G)</title><text x="97.41" y="209.59" class="black" >G</text></g>
<g><text x="103.792" y="207.002" class="numbering-label sequential" >30</text></g>
<g><line x1="99.1118" y1="208.9" x2="101.955" y2="207.746" class="numbering-line sequential" /></g>
<g><title>31 (position.label in template: 31.G)</title><text x="98.95" y="216.99" class="black" >G</text></g>
<g><title>32 (position.label in template: 32.G)</title><text x="97.41" y="224.39" class="black" >G</text></g>
<g><title>33 (position.label in template: 33.U)</title><text x="93.25" y="230.56" class="black" >U</text></g>
<g><title>34 (position.label in template: 34.C)</title><text x="86.77" y="234.46" class="black" >C</text></g>
<g><title>35 (position.label in template: 35.A)</title><text x="86.98" y="242.02" class="black" >A</text></g>
<g><title>36 (position.label in template: 36.U)</title><text x="86.77" y="249.58" class="black" >U</text></g>
<g><title>37 (position.label in template: 37.U)</title><text x="86.77" y="257.14" class="black" >U</text></g>
<g><title>38 (position.label in template: 38.G)</title><text x="91.91" y="262.49" class="black" >G</text></g>
<g><title>39 (position.label in template: 39.G)</title><text x="99.47" y="262.49" class="black" >G</text></g>
<g><title>40 (position.label in template: 40.A)</title><text x="107.44" y="262.49" class="black" >A</text></g>
<g><title>41 (position.label in template: 41.A)</title><text x="115" y="262.49" class="black" >A</text></g>
<g><title>42 (position.label in template: 42.A)</title><text x="120.35" y="257.14" class="black" >A</text></g>
<g><line x1="122.391" y1="256.834" x2="130.339" y2="256.834" class="black" /></g>
<g><title>43 (position.label in template: 43.C)</title><text x="120.14" y="249.58" class="black" >C</text></g>
<g><line x1="122.181" y1="249.274" x2="130.129" y2="249.274" class="black" /></g>
<g><title>44 (position.label in template: 44.U)</title><text x="120.14" y="242.02" class="black" >U</text></g>
<g><line x1="122.181" y1="241.714" x2="130.549" y2="241.714" class="black" /></g>
<g><title>45 (position.label in template: 45.G)</title><text x="116.83" y="235.13" class="black" >G</text></g>
<g><title>46 (position.label in template: 46.G)</title><text x="119.93" y="228.23" class="black" >G</text></g>
<g><line x1="121.971" y1="227.924" x2="130.339" y2="227.924" class="black" /></g>
<g><title>47 (position.label in template: 47.G)</title><text x="115.67" y="221.99" class="black" >G</text></g>
<g><title>48 (position.label in template: 48.G)</title><text x="116.61" y="214.49" class="black" >G</text></g>
<g><title>49 (position.label in template: 49.A)</title><text x="122.69" y="209.48" class="black" >A</text></g>
<g><title>50 (position.label in template: 50.A)</title><text x="130.25" y="209.48" class="black" >A</text></g>
<g><text x="132.723" y="203.053" class="numbering-label sequential" >50</text></g>
<g><line x1="130.91" y1="207.766" x2="132.134" y2="204.583" class="numbering-line sequential" /></g>
<g><title>51 (position.label in template: 51.C)</title><text x="135.71" y="214.49" class="black" >C</text></g>
<g><title>52 (position.label in template: 52.U)</title><text x="136.65" y="221.99" class="black" >U</text></g>
<g><title>53 (position.label in template: 53.U)</title><text x="132.38" y="228.23" class="black" >U</text></g>
<g><title>54 (position.label in template: 54.G)</title><text x="135.27" y="235.13" class="black" >G</text></g>
<g><title>55 (position.label in template: 55.A)</title><text x="132.59" y="242.02" class="black" >A</text></g>
<g><title>56 (position.label in template: 56.G)</title><text x="132.17" y="249.58" class="black" >G</text></g>
<g><title>57 (position.label in template: 57.U)</title><text x="132.38" y="257.14" class="black" >U</text></g>
<g><title>58 (position.label in template: 58.G)</title><text x="137.52" y="262.49" class="black" >G</text></g>
<g><title>59 (position.label in template: 59.C)</title><text x="143.08" y="257.14" class="black" >C</text></g>
<g><line x1="145.121" y1="256.834" x2="153.069" y2="256.834" class="black" /></g>
<g><title>60 (position.label in template: 60.A)</title><text x="143.28" y="249.58" class="black" >A</text></g>
<g><line x1="145.321" y1="249.274" x2="153.269" y2="249.274" class="black" /></g>
<g><title>61 (position.label in template: 61.G)</title><text x="142.86" y="242.02" class="black" >G</text></g>
<g><line x1="144.901" y1="241.714" x2="153.269" y2="241.714" class="black" /></g>
<g><title>62 (position.label in template: 62.A)</title><text x="143.28" y="234.46" class="black" >A</text></g>
<g><line x1="145.321" y1="234.154" x2="153.269" y2="234.154" class="black" /></g>
<g><title>63 (position.label in template: 63.A)</title><text x="136.23" y="231.73" class="black" >A</text></g>
<g><title>64 (position.label in template: 64.G)</title><text x="132.87" y="224.77" class="black" >G</text></g>
<g><title>65 (position.label in template: 65.A)</title><text x="136.23" y="217.8" class="black" >A</text></g>
<g><title>66 (position.label in template: 66.G)</title><text x="142.86" y="215.07" class="black" >G</text></g>
<g><line x1="144.901" y1="214.764" x2="153.269" y2="214.764" class="black" /></g>
<g><title>67 (position.label in template: 67.G)</title><text x="142.86" y="207.51" class="black" >G</text></g>
<g><line x1="144.901" y1="207.204" x2="153.269" y2="207.204" class="black" /></g>
<g><title>68 (position.label in template: 68.A)</title><text x="143.28" y="199.95" class="black" >A</text></g>
<g><line x1="145.321" y1="199.644" x2="153.269" y2="199.644" class="black" /></g>
<g><title>69 (position.label in template: 69.G)</title><text x="142.86" y="192.39" class="black" >G</text></g>
<g><line x1="144.901" y1="192.084" x2="153.269" y2="192.084" class="black" /></g>
<g><title>70 (position.label in template: 70.A)</title><text x="143.28" y="184.83" class="black" >A</text></g>
<g><line x1="145.321" y1="184.524" x2="153.269" y2="184.524" class="black" /></g>
<g><title>71 (position.label in template: 71.G)</title><text x="142.86" y="177.27" class="black" >G</text></g>
<g><line x1="144.901" y1="176.964" x2="153.269" y2="176.964" class="black" /></g>
<g><title>72 (position.label in template: 72.U)</title><text x="143.08" y="169.71" class="black" >U</text></g>
<g><line x1="145.121" y1="169.404" x2="153.479" y2="169.404" class="black" /></g>
<g><title>73 (position.label in template: 73.G)</title><text x="135.91" y="166.75" class="black" >G</text></g>
<g><title>74 (position.label in template: 74.G)</title><text x="130.17" y="161.83" class="black" >G</text></g>
<g><title>75 (position.label in template: 75.A)</title><text x="126.6" y="155.4" class="black" >A</text></g>
<g><title>76 (position.label in template: 76.A)</title><text x="124.73" y="148.08" class="black" >A</text></g>
<g><title>77 (position.label in template: 77.U)</title><text x="124.95" y="140.53" class="black" >U</text></g>
<g><title>78 (position.label in template: 78.U)</title><text x="127.64" y="133.46" class="black" >U</text></g>
<g><line x1="129.072" y1="131.7" x2="134.898" y2="125.787" class="black" /></g>
<g><title>79 (position.label in template: 79.C)</title><text x="122.19" y="128.22" class="black" >C</text></g>
<g><line x1="123.586" y1="126.425" x2="129.064" y2="120.582" class="black" /></g>
<g><title>80 (position.label in template: 80.C)</title><text x="116.74" y="122.98" class="black" >C</text></g>
<g><line x1="118.136" y1="121.185" x2="123.614" y2="115.342" class="black" /></g>
<g><title>81 (position.label in template: 81.A)</title><text x="111.49" y="117.75" class="black" >A</text></g>
<g><line x1="112.886" y1="115.955" x2="118.374" y2="110.102" class="black" /></g>
<g><title>82 (position.label in template: 82.C)</title><text x="105.84" y="112.51" class="black" >C</text></g>
<g><line x1="107.235" y1="110.715" x2="112.715" y2="104.863" class="black" /></g>
<g><title>83 (position.label in template: 83.G)</title><text x="100.17" y="107.27" class="black" >G</text></g>
<g><line x1="101.602" y1="105.51" x2="107.438" y2="99.5875" class="black" /></g>
<g><title>84 (position.label in template: 84.U)</title><text x="94.93" y="102.03" class="black" >U</text></g>
<g><line x1="96.3621" y1="100.27" x2="102.188" y2="94.3575" class="black" /></g>
<g><title>85 (position.label in template: 85.G)</title><text x="87.6" y="99.49" class="black" >G</text></g>
<g><title>86 (position.label in template: 86.U)</title><text x="84.99" y="92.47" class="black" >U</text></g>
<g><line x1="86.4221" y1="90.7104" x2="92.2479" y2="84.7975" class="black" /></g>
<g><title>87 (position.label in template: 87.A)</title><text x="77.65" y="92.98" class="black" >A</text></g>
<g><title>88 (position.label in template: 88.G)</title><text x="70.56" y="89.44" class="black" >G</text></g>
<g><title>89 (position.label in template: 89.C)</title><text x="66.96" y="82.91" class="black" >C</text></g>
<g><title>90 (position.label in template: 90.G)</title><text x="66.97" y="75.35" class="black" >G</text></g>
<g><line x1="68.4021" y1="73.5904" x2="74.2279" y2="67.6775" class="black" /></g>
<g><title>91 (position.label in template: 91.G)</title><text x="59.41" y="75.51" class="black" >G</text></g>
<g><title>92 (position.label in template: 92.U)</title><text x="53.25" y="71.44" class="black" >U</text></g>
<g><title>93 (position.label in template: 93.G)</title><text x="50" y="64.52" class="black" >G</text></g>
<g><title>94 (position.label in template: 94.A)</title><text x="51.74" y="57.08" class="black" >A</text></g>
<g><title>95 (position.label in template: 95.A)</title><text x="56.98" y="51.62" class="black" >A</text></g>
<g><title>96 (position.label in template: 96.A)</title><text x="64.36" y="50" class="black" >A</text></g>
<g><title>97 (position.label in template: 97.U)</title><text x="71.2" y="52.76" class="black" >U</text></g>
<g><title>98 (position.label in template: 98.G)</title><text x="75.31" y="58.97" class="black" >G</text></g>
<g><title>99 (position.label in template: 99.C)</title><text x="75.66" y="66.53" class="black" >C</text></g>
<g><title>100 (position.label in template: 100.G)</title><text x="82.16" y="63.05" class="black" >G</text></g>
<g><text x="81.0115" y="56.2597" class="numbering-label sequential" >100</text></g>
<g><line x1="81.8537" y1="61.2392" x2="81.2704" y2="57.7901" class="numbering-line sequential" /></g>
<g><title>101 (position.label in template: 101.U)</title><text x="89.85" y="64.13" class="black" >U</text></g>
<g><title>102 (position.label in template: 102.A)</title><text x="95.51" y="69.37" class="black" >A</text></g>
<g><title>103 (position.label in template: 103.G)</title><text x="96.47" y="76.8" class="black" >G</text></g>
<g><title>104 (position.label in template: 104.A)</title><text x="93.68" y="83.65" class="black" >A</text></g>
<g><title>105 (position.label in template: 105.G)</title><text x="100.38" y="86.19" class="black" >G</text></g>
<g><title>106 (position.label in template: 106.A)</title><text x="103.62" y="93.21" class="black" >A</text></g>
<g><title>107 (position.label in template: 107.U)</title><text x="108.87" y="98.44" class="black" >U</text></g>
<g><title>108 (position.label in template: 108.G)</title><text x="114.11" y="103.68" class="black" >G</text></g>
<g><title>109 (position.label in template: 109.U)</title><text x="119.77" y="108.92" class="black" >U</text></g>
<g><title>110 (position.label in template: 110.G)</title><text x="125.01" y="114.16" class="black" >G</text></g>
<g><title>111 (position.label in template: 111.G)</title><text x="130.46" y="119.4" class="black" >G</text></g>
<g><title>112 (position.label in template: 112.A)</title><text x="136.33" y="124.64" class="black" >A</text></g>
<g><title>113 (position.label in template: 113.G)</title><text x="142.86" y="121.67" class="black" >G</text></g>
<g><line x1="144.901" y1="121.364" x2="153.269" y2="121.364" class="black" /></g>
<g><title>114 (position.label in template: 114.G)</title><text x="142.86" y="114.11" class="black" >G</text></g>
<g><line x1="144.901" y1="113.804" x2="153.269" y2="113.804" class="black" /></g>
<g><title>115 (position.label in template: 115.A)</title><text x="141.11" y="106.87" class="black" >A</text></g>
<g><title>116 (position.label in template: 116.A)</title><text x="145.62" y="100.81" class="black" >A</text></g>
<g><title>117 (position.label in template: 117.C)</title><text x="152.97" y="100.81" class="black" >C</text></g>
<g><title>118 (position.label in template: 118.A)</title><text x="157.69" y="106.87" class="black" >A</text></g>
<g><title>119 (position.label in template: 119.C)</title><text x="155.31" y="114.11" class="black" >C</text></g>
<g><title>120 (position.label in template: 120.C)</title><text x="155.31" y="121.67" class="black" >C</text></g>
<g><title>121 (position.label in template: 121.A)</title><text x="162.48" y="124.64" class="black" >A</text></g>
<g><title>122 (position.label in template: 122.G)</title><text x="167.8" y="129.56" class="black" >G</text></g>
<g><title>123 (position.label in template: 123.U)</title><text x="172" y="135.98" class="black" >U</text></g>
<g><title>124 (position.label in template: 124.G)</title><text x="173.66" y="143.31" class="black" >G</text></g>
<g><title>125 (position.label in template: 125.G)</title><text x="173.23" y="150.85" class="black" >G</text></g>
<g><line x1="172.354" y1="152.387" x2="168.886" y2="159.681" class="black" /></g>
<g><title>126 (position.label in template: 126.C)</title><text x="180.21" y="154.21" class="black" >C</text></g>
<g><line x1="179.278" y1="155.719" x2="175.512" y2="163.059" class="black" /></g>
<g><title>127 (position.label in template: 127.G)</title><text x="187.46" y="155.47" class="black" >G</text></g>
<g><title>128 (position.label in template: 128.A)</title><text x="191.31" y="162.2" class="black" >A</text></g>
<g><title>129 (position.label in template: 129.A)</title><text x="187.96" y="168.98" class="black" >A</text></g>
<g><title>130 (position.label in template: 130.G)</title><text x="180.1" y="170.33" class="black" >G</text></g>
<g><title>131 (position.label in template: 131.G)</title><text x="174.58" y="165.18" class="black" >G</text></g>
<g><title>132 (position.label in template: 132.C)</title><text x="168.01" y="161.83" class="black" >C</text></g>
<g><title>133 (position.label in template: 133.G)</title><text x="162.06" y="166.75" class="black" >G</text></g>
<g><title>134 (position.label in template: 134.A)</title><text x="155.52" y="169.71" class="black" >A</text></g>
<g><title>135 (position.label in template: 135.C)</title><text x="155.31" y="177.27" class="black" >C</text></g>
<g><title>136 (position.label in template: 136.U)</title><text x="155.31" y="184.83" class="black" >U</text></g>
<g><title>137 (position.label in template: 137.C)</title><text x="155.31" y="192.39" class="black" >C</text></g>
<g><title>138 (position.label in template: 138.U)</title><text x="155.31" y="199.95" class="black" >U</text></g>
<g><title>139 (position.label in template: 139.C)</title><text x="155.31" y="207.51" class="black" >C</text></g>
<g><title>140 (position.label in template: 140.U)</title><text x="155.31" y="215.07" class="black" >U</text></g>
<g><title>141 (position.label in template: 141.G)</title><text x="159.81" y="220.99" class="black" >G</text></g>
<g><title>142 (position.label in template: 142.G)</title><text x="159.81" y="228.55" class="black" >G</text></g>
<g><title>143 (position.label in template: 143.U)</title><text x="155.31" y="234.46" class="black" >U</text></g>
<g><title>144 (position.label in template: 144.C)</title><text x="155.31" y="242.02" class="black" >C</text></g>
<g><title>145 (position.label in template: 145.U)</title><text x="155.31" y="249.58" class="black" >U</text></g>
<g><title>146 (position.label in template: 146.G)</title><text x="155.11" y="257.14" class="black" >G</text></g>
<g><title>147 (position.label in template: 147.U)</title><text x="160.66" y="262.49" class="black" >U</text></g>
<g><title>148 (position.label in template: 148.A)</title><text x="168.43" y="262.49" class="black" >A</text></g>
<g><title>149 (position.label in template: 149.A)</title><text x="175.99" y="262.49" class="black" >A</text></g>
<g><title>150 (position.label in template: 150.C)</title><text x="181.13" y="257.14" class="black" >C</text></g>
<g><line x1="183.171" y1="256.834" x2="191.119" y2="256.834" class="black" /></g>
<g><text x="174.732" y="254.593" class="numbering-label sequential" >150</text></g>
<g><line x1="179.424" y1="256.461" x2="177.486" y2="255.689" class="numbering-line sequential" /></g>
<g><title>151 (position.label in template: 151.U)</title><text x="181.13" y="249.58" class="black" >U</text></g>
<g><line x1="183.171" y1="249.274" x2="191.119" y2="249.274" class="black" /></g>
<g><title>152 (position.label in template: 152.G)</title><text x="177.82" y="242.69" class="black" >G</text></g>
<g><title>153 (position.label in template: 153.A)</title><text x="181.33" y="235.79" class="black" >A</text></g>
<g><line x1="183.371" y1="235.484" x2="191.329" y2="235.484" class="black" /></g>
<g><title>154 (position.label in template: 154.C)</title><text x="181.13" y="228.23" class="black" >C</text></g>
<g><line x1="183.171" y1="227.924" x2="191.119" y2="227.924" class="black" /></g>
<g><title>155 (position.label in template: 155.G)</title><text x="180.92" y="220.67" class="black" >G</text></g>
<g><line x1="182.961" y1="220.364" x2="191.329" y2="220.364" class="black" /></g>
<g><title>156 (position.label in template: 156.C)</title><text x="181.13" y="213.11" class="black" >C</text></g>
<g><line x1="183.171" y1="212.804" x2="191.119" y2="212.804" class="black" /></g>
<g><title>157 (position.label in template: 157.U)</title><text x="181.13" y="205.55" class="black" >U</text></g>
<g><line x1="183.171" y1="205.244" x2="191.529" y2="205.244" class="black" /></g>
<g><title>158 (position.label in template: 158.G)</title><text x="174.93" y="200.93" class="black" >G</text></g>
<g><title>159 (position.label in template: 159.A)</title><text x="172.29" y="194.02" class="black" >A</text></g>
<g><title>160 (position.label in template: 160.G)</title><text x="172.49" y="186.48" class="black" >G</text></g>
<g><title>161 (position.label in template: 161.G)</title><text x="176.61" y="180.15" class="black" >G</text></g>
<g><title>162 (position.label in template: 162.A)</title><text x="183.67" y="176.54" class="black" >A</text></g>
<g><title>163 (position.label in template: 163.G)</title><text x="190.82" y="176.54" class="black" >G</text></g>
<g><title>164 (position.label in template: 164.C)</title><text x="197.67" y="180.15" class="black" >C</text></g>
<g><title>165 (position.label in template: 165.G)</title><text x="201.59" y="186.48" class="black" >G</text></g>
<g><title>166 (position.label in template: 166.A)</title><text x="202.61" y="194.02" class="black" >A</text></g>
<g><title>167 (position.label in template: 167.A)</title><text x="199.56" y="200.93" class="black" >A</text></g>
<g><title>168 (position.label in template: 168.A)</title><text x="193.57" y="205.55" class="black" >A</text></g>
<g><title>169 (position.label in template: 169.G)</title><text x="193.16" y="213.11" class="black" >G</text></g>
<g><title>170 (position.label in template: 170.C)</title><text x="193.37" y="220.67" class="black" >C</text></g>
<g><title>171 (position.label in template: 171.G)</title><text x="193.16" y="228.23" class="black" >G</text></g>
<g><title>172 (position.label in template: 172.U)</title><text x="193.37" y="235.79" class="black" >U</text></g>
<g><title>173 (position.label in template: 173.G)</title><text x="196.26" y="242.69" class="black" >G</text></g>
<g><title>174 (position.label in template: 174.G)</title><text x="193.16" y="249.58" class="black" >G</text></g>
<g><title>175 (position.label in template: 175.G)</title><text x="193.16" y="257.14" class="black" >G</text></g>
<g><title>176 (position.label in template: 176.G)</title><text x="198.5" y="262.49" class="black" >G</text></g>
<g><title>177 (position.label in template: 177.A)</title><text x="206.48" y="262.49" class="black" >A</text></g>
<g><title>178 (position.label in template: 178.G)</title><text x="213.62" y="262.49" class="black" >G</text></g>
<g><title>179 (position.label in template: 179.C)</title><text x="221.39" y="262.49" class="black" >C</text></g>
<g><title>180 (position.label in template: 180.G)</title><text x="228.74" y="262.49" class="black" >G</text></g>
<g><title>181 (position.label in template: 181.A)</title><text x="236.72" y="262.49" class="black" >A</text></g>
<g><title>182 (position.label in template: 182.A)</title><text x="244.28" y="262.49" class="black" >A</text></g>
<g><title>183 (position.label in template: 183.C)</title><text x="249.42" y="257.14" class="black" >C</text></g>
<g><line x1="251.461" y1="256.834" x2="259.409" y2="256.834" class="black" /></g>
<g><title>184 (position.label in template: 184.A)</title><text x="249.62" y="249.58" class="black" >A</text></g>
<g><line x1="251.661" y1="249.274" x2="259.619" y2="249.274" class="black" /></g>
<g><title>185 (position.label in template: 185.G)</title><text x="249.21" y="242.02" class="black" >G</text></g>
<g><line x1="251.251" y1="241.714" x2="259.619" y2="241.714" class="black" /></g>
<g><title>186 (position.label in template: 186.G)</title><text x="249.21" y="234.46" class="black" >G</text></g>
<g><line x1="251.251" y1="234.154" x2="259.619" y2="234.154" class="black" /></g>
<g><title>187 (position.label in template: 187.A)</title><text x="243.92" y="229.5" class="black" >A</text></g>
<g><title>188 (position.label in template: 188.U)</title><text x="241.36" y="222.32" class="black" >U</text></g>
<g><title>189 (position.label in template: 189.U)</title><text x="243.03" y="214.95" class="black" >U</text></g>
<g><title>190 (position.label in template: 190.A)</title><text x="248.46" y="209.48" class="black" >A</text></g>
<g><title>191 (position.label in template: 191.G)</title><text x="255.33" y="207.46" class="black" >G</text></g>
<g><title>192 (position.label in template: 192.A)</title><text x="263.03" y="209.48" class="black" >A</text></g>
<g><title>193 (position.label in template: 193.U)</title><text x="268.04" y="214.95" class="black" >U</text></g>
<g><title>194 (position.label in template: 194.A)</title><text x="269.92" y="222.32" class="black" >A</text></g>
<g><title>195 (position.label in template: 195.C)</title><text x="267.37" y="229.5" class="black" >C</text></g>
<g><title>196 (position.label in template: 196.C)</title><text x="261.66" y="234.46" class="black" >C</text></g>
<g><title>197 (position.label in template: 197.C)</title><text x="261.66" y="242.02" class="black" >C</text></g>
<g><title>198 (position.label in template: 198.U)</title><text x="261.66" y="249.58" class="black" >U</text></g>
<g><title>199 (position.label in template: 199.G)</title><text x="261.45" y="257.14" class="black" >G</text></g>
<g><title>200 (position.label in template: 200.G)</title><text x="266.792" y="262.492" class="black" >G</text></g>
<g><title>201 (position.label in template: 201.3')</title><text x="266.659" y="270.052" class="green" >3'</text></g>
<g><line x1="74.0137" y1="262.346" x2="74.2068" y2="258.871" class="gray" /></g>
<g><line x1="74.4332" y1="254.797" x2="74.6268" y2="251.311" class="gray" /></g>
<g><line x1="74.6833" y1="247.234" x2="74.5867" y2="243.754" class="gray" /></g>
<g><line x1="74.4733" y1="239.674" x2="74.3767" y2="236.194" class="gray" /></g>
<g><line x1="72.2837" y1="234.023" x2="69.0263" y2="233.814" class="gray" /></g>
<g><line x1="65.1804" y1="232.741" x2="61.9296" y2="231.047" class="gray" /></g>
<g><line x1="58.965" y1="228.422" x2="57.135" y2="225.756" class="gray" /></g>
<g><line x1="55.5431" y1="222.081" x2="54.7969" y2="218.677" class="gray" /></g>
<g><line x1="54.7975" y1="214.691" x2="55.5425" y2="211.297" class="gray" /></g>
<g><line x1="57.1337" y1="207.621" x2="58.9663" y2="204.947" class="gray" /></g>
<g><line x1="61.9296" y1="202.321" x2="65.1804" y2="200.627" class="gray" /></g>
<g><line x1="69.0266" y1="199.557" x2="72.4934" y2="199.341" class="gray" /></g>
<g><line x1="74.53" y1="197.173" x2="74.53" y2="193.694" class="gray" /></g>
<g><line x1="74.53" y1="189.613" x2="74.53" y2="186.134" class="gray" /></g>
<g><line x1="74.53" y1="182.053" x2="74.53" y2="178.574" class="gray" /></g>
<g><line x1="74.4733" y1="174.494" x2="74.3767" y2="171.014" class="gray" /></g>
<g><line x1="74.32" y1="166.933" x2="74.32" y2="163.454" class="gray" /></g>
<g><line x1="73.4481" y1="159.569" x2="72.0019" y2="156.509" class="gray" /></g>
<g><line x1="71.826" y1="152.746" x2="73.014" y2="149.472" class="gray" /></g>
<g><line x1="75.584" y1="146.747" x2="78.776" y2="145.371" class="gray" /></g>
<g><line x1="82.5326" y1="145.351" x2="85.9174" y2="146.767" class="gray" /></g>
<g><line x1="88.496" y1="149.472" x2="89.684" y2="152.746" class="gray" /></g>
<g><line x1="89.4177" y1="156.463" x2="87.7323" y2="159.615" class="gray" /></g>
<g><line x1="86.77" y1="163.454" x2="86.77" y2="166.933" class="gray" /></g>
<g><line x1="86.7133" y1="171.014" x2="86.6167" y2="174.494" class="gray" /></g>
<g><line x1="86.56" y1="178.574" x2="86.56" y2="182.053" class="gray" /></g>
<g><line x1="86.56" y1="186.134" x2="86.56" y2="189.613" class="gray" /></g>
<g><line x1="86.56" y1="193.694" x2="86.56" y2="197.173" class="gray" /></g>
<g><line x1="88.3347" y1="200.221" x2="91.6753" y2="202.117" class="gray" /></g>
<g><line x1="94.5534" y1="204.84" x2="96.3066" y2="207.567" class="gray" /></g>
<g><line x1="97.8257" y1="211.282" x2="98.5343" y2="214.686" class="gray" /></g>
<g><line x1="98.5343" y1="218.682" x2="97.8257" y2="222.086" class="gray" /></g>
<g><line x1="96.2693" y1="225.776" x2="94.3907" y2="228.562" class="gray" /></g>
<g><line x1="91.5017" y1="231.306" x2="88.5183" y2="233.102" class="gray" /></g>
<g><line x1="86.8267" y1="236.194" x2="86.9233" y2="239.674" class="gray" /></g>
<g><line x1="86.9233" y1="243.754" x2="86.8267" y2="247.234" class="gray" /></g>
<g><line x1="86.77" y1="251.314" x2="86.77" y2="254.793" class="gray" /></g>
<g><line x1="88.1837" y1="258.305" x2="90.4963" y2="260.712" class="gray" /></g>
<g><line x1="93.9505" y1="262.184" x2="97.4295" y2="262.184" class="gray" /></g>
<g><line x1="101.511" y1="262.184" x2="105.399" y2="262.184" class="gray" /></g>
<g><line x1="109.481" y1="262.184" x2="112.959" y2="262.184" class="gray" /></g>
<g><line x1="116.443" y1="260.741" x2="118.907" y2="258.277" class="gray" /></g>
<g><line x1="120.293" y1="254.794" x2="120.197" y2="251.314" class="gray" /></g>
<g><line x1="120.14" y1="247.233" x2="120.14" y2="243.754" class="gray" /></g>
<g><line x1="119.256" y1="239.875" x2="117.714" y2="236.663" class="gray" /></g>
<g><line x1="117.666" y1="232.963" x2="119.094" y2="229.785" class="gray" /></g>
<g><line x1="118.779" y1="226.239" x2="116.821" y2="223.369" class="gray" /></g>
<g><line x1="115.924" y1="219.659" x2="116.356" y2="216.209" class="gray" /></g>
<g><line x1="118.185" y1="212.886" x2="121.115" y2="210.472" class="gray" /></g>
<g><line x1="124.731" y1="209.174" x2="128.209" y2="209.174" class="gray" /></g>
<g><line x1="131.753" y1="210.554" x2="134.207" y2="212.804" class="gray" /></g>
<g><line x1="135.964" y1="216.209" x2="136.396" y2="219.659" class="gray" /></g>
<g><line x1="135.498" y1="223.368" x2="133.532" y2="226.24" class="gray" /></g>
<g><line x1="133.168" y1="229.806" x2="134.482" y2="232.942" class="gray" /></g>
<g><line x1="134.53" y1="236.726" x2="133.33" y2="239.812" class="gray" /></g>
<g><line x1="132.477" y1="243.751" x2="132.283" y2="247.237" class="gray" /></g>
<g><line x1="132.227" y1="251.314" x2="132.323" y2="254.794" class="gray" /></g>
<g><line x1="133.794" y1="258.305" x2="136.106" y2="260.712" class="gray" /></g>
<g><line x1="138.99" y1="260.769" x2="141.61" y2="258.249" class="gray" /></g>
<g><line x1="143.134" y1="254.794" x2="143.226" y2="251.314" class="gray" /></g>
<g><line x1="143.167" y1="247.237" x2="142.973" y2="243.751" class="gray" /></g>
<g><line x1="142.973" y1="239.677" x2="143.167" y2="236.191" class="gray" /></g>
<g><line x1="141.377" y1="233.417" x2="138.133" y2="232.161" class="gray" /></g>
<g><line x1="135.343" y1="229.586" x2="133.757" y2="226.302" class="gray" /></g>
<g><line x1="133.756" y1="222.626" x2="135.344" y2="219.332" class="gray" /></g>
<g><line x1="138.117" y1="216.717" x2="140.973" y2="215.541" class="gray" /></g>
<g><line x1="142.86" y1="212.723" x2="142.86" y2="209.244" class="gray" /></g>
<g><line x1="142.973" y1="205.167" x2="143.167" y2="201.681" class="gray" /></g>
<g><line x1="143.167" y1="197.607" x2="142.973" y2="194.121" class="gray" /></g>
<g><line x1="142.973" y1="190.047" x2="143.167" y2="186.561" class="gray" /></g>
<g><line x1="143.167" y1="182.487" x2="142.973" y2="179.001" class="gray" /></g>
<g><line x1="142.919" y1="174.924" x2="143.021" y2="171.444" class="gray" /></g>
<g><line x1="141.194" y1="168.625" x2="137.796" y2="167.223" class="gray" /></g>
<g><line x1="134.361" y1="165.116" x2="131.719" y2="162.852" class="gray" /></g>
<g><line x1="129.18" y1="159.74" x2="127.59" y2="156.878" class="gray" /></g>
<g><line x1="126.095" y1="153.117" x2="125.235" y2="149.751" class="gray" /></g>
<g><line x1="124.789" y1="145.734" x2="124.891" y2="142.264" class="gray" /></g>
<g><line x1="125.676" y1="138.317" x2="126.914" y2="135.061" class="gray" /></g>
<g><line x1="126.169" y1="131.74" x2="123.661" y2="129.328" class="gray" /></g>
<g><line x1="120.719" y1="126.5" x2="118.211" y2="124.088" class="gray" /></g>
<g><line x1="115.294" y1="121.234" x2="112.936" y2="118.884" class="gray" /></g>
<g><line x1="109.994" y1="116.056" x2="107.336" y2="113.591" class="gray" /></g>
<g><line x1="104.341" y1="110.819" x2="101.669" y2="108.349" class="gray" /></g>
<g><line x1="98.7271" y1="105.521" x2="96.3729" y2="103.167" class="gray" /></g>
<g><line x1="93.0019" y1="101.056" x2="89.5281" y2="99.852" class="gray" /></g>
<g><line x1="86.8889" y1="97.2713" x2="85.7011" y2="94.0765" class="gray" /></g>
<g><line x1="82.9544" y1="92.3054" x2="79.6856" y2="92.5325" class="gray" /></g>
<g><line x1="75.8244" y1="91.7624" x2="72.3856" y2="90.0454" class="gray" /></g>
<g><line x1="69.5748" y1="87.347" x2="67.9452" y2="84.3909" class="gray" /></g>
<g><line x1="66.9627" y1="80.5634" x2="66.9673" y2="77.0844" class="gray" /></g>
<g><line x1="64.9299" y1="75.0871" x2="61.4501" y2="75.1607" class="gray" /></g>
<g><line x1="57.7075" y1="74.0791" x2="54.9525" y2="72.2588" class="gray" /></g>
<g><line x1="52.3826" y1="69.2869" x2="50.8674" y2="66.0609" class="gray" /></g>
<g><line x1="50.4647" y1="62.227" x2="51.2753" y2="58.7608" class="gray" /></g>
<g><line x1="53.1529" y1="55.3017" x2="55.5671" y2="52.7861" class="gray" /></g>
<g><line x1="58.9731" y1="50.8764" x2="62.3669" y2="50.1314" class="gray" /></g>
<g><line x1="66.2523" y1="50.4575" x2="69.3077" y2="51.6904" class="gray" /></g>
<g><line x1="72.3262" y1="54.1555" x2="74.1838" y2="56.9623" class="gray" /></g>
<g><line x1="75.4044" y1="60.7023" x2="75.5656" y2="64.1856" class="gray" /></g>
<g><line x1="77.4589" y1="65.2608" x2="80.3611" y2="63.707" class="gray" /></g>
<g><line x1="84.1807" y1="63.0277" x2="87.8293" y2="63.5401" class="gray" /></g>
<g><line x1="91.3474" y1="65.2102" x2="94.0126" y2="67.6777" class="gray" /></g>
<g><line x1="95.7715" y1="71.0876" x2="96.2085" y2="74.4702" class="gray" /></g>
<g><line x1="95.7003" y1="78.3837" x2="94.4497" y2="81.4541" class="gray" /></g>
<g><line x1="95.588" y1="84.0673" x2="98.472" y2="85.1606" class="gray" /></g>
<g><line x1="101.235" y1="87.7366" x2="102.765" y2="91.0512" class="gray" /></g>
<g><line x1="105.066" y1="94.344" x2="107.424" y2="96.6938" class="gray" /></g>
<g><line x1="110.313" y1="99.5768" x2="112.667" y2="101.931" class="gray" /></g>
<g><line x1="115.607" y1="104.76" x2="118.273" y2="107.228" class="gray" /></g>
<g><line x1="121.213" y1="110.057" x2="123.567" y2="112.411" class="gray" /></g>
<g><line x1="126.481" y1="115.268" x2="128.989" y2="117.68" class="gray" /></g>
<g><line x1="131.982" y1="120.453" x2="134.808" y2="122.975" class="gray" /></g>
<g><line x1="138.187" y1="123.489" x2="141.003" y2="122.209" class="gray" /></g>
<g><line x1="142.86" y1="119.323" x2="142.86" y2="115.844" class="gray" /></g>
<g><line x1="142.381" y1="111.821" x2="141.589" y2="108.547" class="gray" /></g>
<g><line x1="142.328" y1="104.927" x2="144.402" y2="102.141" class="gray" /></g>
<g><line x1="147.661" y1="100.504" x2="150.929" y2="100.504" class="gray" /></g>
<g><line x1="154.224" y1="102.114" x2="156.436" y2="104.954" class="gray" /></g>
<g><line x1="157.053" y1="108.502" x2="155.947" y2="111.865" class="gray" /></g>
<g><line x1="155.31" y1="115.844" x2="155.31" y2="119.323" class="gray" /></g>
<g><line x1="157.195" y1="122.145" x2="160.595" y2="123.553" class="gray" /></g>
<g><line x1="163.978" y1="125.719" x2="166.302" y2="127.868" class="gray" /></g>
<g><line x1="168.917" y1="130.961" x2="170.883" y2="133.966" class="gray" /></g>
<g><line x1="172.451" y1="137.664" x2="173.209" y2="141.014" class="gray" /></g>
<g><line x1="173.544" y1="145.041" x2="173.346" y2="148.507" class="gray" /></g>
<g><line x1="175.069" y1="151.429" x2="178.371" y2="153.019" class="gray" /></g>
<g><line x1="182.22" y1="154.253" x2="185.45" y2="154.815" class="gray" /></g>
<g><line x1="188.473" y1="156.935" x2="190.297" y2="160.123" class="gray" /></g>
<g><line x1="190.406" y1="163.723" x2="188.864" y2="166.845" class="gray" /></g>
<g><line x1="185.949" y1="169.019" x2="182.111" y2="169.679" class="gray" /></g>
<g><line x1="178.608" y1="168.632" x2="176.072" y2="166.266" class="gray" /></g>
<g><line x1="172.762" y1="163.947" x2="169.828" y2="162.451" class="gray" /></g>
<g><line x1="166.437" y1="162.824" x2="163.633" y2="165.144" class="gray" /></g>
<g><line x1="160.201" y1="167.285" x2="157.379" y2="168.563" class="gray" /></g>
<g><line x1="155.463" y1="171.444" x2="155.367" y2="174.924" class="gray" /></g>
<g><line x1="155.31" y1="179.004" x2="155.31" y2="182.483" class="gray" /></g>
<g><line x1="155.31" y1="186.564" x2="155.31" y2="190.043" class="gray" /></g>
<g><line x1="155.31" y1="194.124" x2="155.31" y2="197.603" class="gray" /></g>
<g><line x1="155.31" y1="201.684" x2="155.31" y2="205.163" class="gray" /></g>
<g><line x1="155.31" y1="209.244" x2="155.31" y2="212.723" class="gray" /></g>
<g><line x1="156.545" y1="216.388" x2="158.575" y2="219.059" class="gray" /></g>
<g><line x1="159.81" y1="222.724" x2="159.81" y2="226.203" class="gray" /></g>
<g><line x1="158.574" y1="229.867" x2="156.546" y2="232.53" class="gray" /></g>
<g><line x1="155.31" y1="236.194" x2="155.31" y2="239.673" class="gray" /></g>
<g><line x1="155.31" y1="243.754" x2="155.31" y2="247.233" class="gray" /></g>
<g><line x1="155.256" y1="251.314" x2="155.164" y2="254.794" class="gray" /></g>
<g><line x1="156.579" y1="258.25" x2="159.191" y2="260.768" class="gray" /></g>
<g><line x1="162.701" y1="262.184" x2="166.389" y2="262.184" class="gray" /></g>
<g><line x1="170.471" y1="262.184" x2="173.949" y2="262.184" class="gray" /></g>
<g><line x1="177.404" y1="260.712" x2="179.716" y2="258.305" class="gray" /></g>
<g><line x1="181.13" y1="254.793" x2="181.13" y2="251.314" class="gray" /></g>
<g><line x1="180.246" y1="247.435" x2="178.704" y2="244.223" class="gray" /></g>
<g><line x1="178.745" y1="240.565" x2="180.405" y2="237.303" class="gray" /></g>
<g><line x1="181.276" y1="233.444" x2="181.184" y2="229.964" class="gray" /></g>
<g><line x1="181.073" y1="225.884" x2="180.977" y2="222.404" class="gray" /></g>
<g><line x1="180.977" y1="218.324" x2="181.073" y2="214.844" class="gray" /></g>
<g><line x1="181.13" y1="210.763" x2="181.13" y2="207.284" class="gray" /></g>
<g><line x1="179.494" y1="204.025" x2="176.566" y2="201.843" class="gray" /></g>
<g><line x1="174.202" y1="198.718" x2="173.018" y2="195.62" class="gray" /></g>
<g><line x1="172.344" y1="191.674" x2="172.436" y2="188.214" class="gray" /></g>
<g><line x1="173.603" y1="184.464" x2="175.497" y2="181.554" class="gray" /></g>
<g><line x1="178.427" y1="178.915" x2="181.853" y2="177.163" class="gray" /></g>
<g><line x1="185.711" y1="176.234" x2="188.779" y2="176.234" class="gray" /></g>
<g><line x1="192.625" y1="177.185" x2="195.865" y2="178.893" class="gray" /></g>
<g><line x1="198.744" y1="181.579" x2="200.516" y2="184.439" class="gray" /></g>
<g><line x1="201.864" y1="188.196" x2="202.336" y2="191.692" class="gray" /></g>
<g><line x1="201.786" y1="195.581" x2="200.384" y2="198.757" class="gray" /></g>
<g><line x1="197.944" y1="201.87" x2="195.186" y2="203.998" class="gray" /></g>
<g><line x1="193.459" y1="207.281" x2="193.271" y2="210.766" class="gray" /></g>
<g><line x1="193.217" y1="214.844" x2="193.313" y2="218.324" class="gray" /></g>
<g><line x1="193.313" y1="222.404" x2="193.217" y2="225.884" class="gray" /></g>
<g><line x1="193.217" y1="229.964" x2="193.313" y2="233.444" class="gray" /></g>
<g><line x1="194.158" y1="237.366" x2="195.472" y2="240.502" class="gray" /></g>
<g><line x1="195.423" y1="244.245" x2="193.997" y2="247.413" class="gray" /></g>
<g><line x1="193.16" y1="251.314" x2="193.16" y2="254.793" class="gray" /></g>
<g><line x1="194.602" y1="258.278" x2="197.058" y2="260.74" class="gray" /></g>
<g><line x1="200.541" y1="262.184" x2="204.439" y2="262.184" class="gray" /></g>
<g><line x1="208.521" y1="262.184" x2="211.579" y2="262.184" class="gray" /></g>
<g><line x1="215.661" y1="262.184" x2="219.349" y2="262.184" class="gray" /></g>
<g><line x1="223.431" y1="262.184" x2="226.699" y2="262.184" class="gray" /></g>
<g><line x1="230.781" y1="262.184" x2="234.679" y2="262.184" class="gray" /></g>
<g><line x1="238.761" y1="262.184" x2="242.239" y2="262.184" class="gray" /></g>
<g><line x1="245.694" y1="260.712" x2="248.006" y2="258.305" class="gray" /></g>
<g><line x1="249.474" y1="254.794" x2="249.566" y2="251.314" class="gray" /></g>
<g><line x1="249.509" y1="247.236" x2="249.321" y2="243.751" class="gray" /></g>
<g><line x1="249.21" y1="239.673" x2="249.21" y2="236.194" class="gray" /></g>
<g><line x1="247.721" y1="232.758" x2="245.409" y2="230.59" class="gray" /></g>
<g><line x1="243.235" y1="227.272" x2="242.045" y2="223.936" class="gray" /></g>
<g><line x1="241.811" y1="220.024" x2="242.579" y2="216.634" class="gray" /></g>
<g><line x1="244.468" y1="213.196" x2="247.022" y2="210.622" class="gray" /></g>
<g><line x1="250.418" y1="208.598" x2="253.372" y2="207.73" class="gray" /></g>
<g><line x1="257.304" y1="207.672" x2="261.056" y2="208.656" class="gray" /></g>
<g><line x1="264.408" y1="210.679" x2="266.662" y2="213.139" class="gray" /></g>
<g><line x1="268.544" y1="216.621" x2="269.416" y2="220.037" class="gray" /></g>
<g><line x1="269.237" y1="223.937" x2="268.053" y2="227.271" class="gray" /></g>
<g><line x1="265.83" y1="230.532" x2="263.2" y2="232.816" class="gray" /></g>
<g><line x1="261.66" y1="236.194" x2="261.66" y2="239.673" class="gray" /></g>
<g><line x1="261.66" y1="243.754" x2="261.66" y2="247.233" class="gray" /></g>
<g><line x1="261.603" y1="251.314" x2="261.507" y2="254.794" class="gray" /></g>
<g><line x1="262.892" y1="258.278" x2="265.35" y2="260.742" class="gray" /></g>
<g><line x1="266.756" y1="264.226" x2="266.695" y2="267.706" class="gray" /></g>
</svg>
