<svg
	xmlns="http://www.w3.org/2000/svg"
	width="319.92"
	height="312.491">
<g><style type="text/css" >
<!-- create color definitions -->
<![CDATA[
circle.red {stroke: rgb(255, 0, 255); fill: none; }
circle.green {stroke: rgb(0, 255, 0); fill: none; }
circle.blue {stroke: rgb(0, 0, 255); fill: none; }
circle.black {stroke: rgb(0, 0, 0); fill: none; }
circle.gray {stroke: rgb(204, 204, 204); fill: none; }
circle.brown {stroke: rgb(211.65, 104.55, 30.6); fill: none; }
line.red {stroke: rgb(255, 0, 255); stroke-width: 0.38385; }
line.green {stroke: rgb(0, 255, 0); stroke-width: 0.38385; }
line.blue {stroke: rgb(0, 0, 255); stroke-width: 0.38385; }
line.black {stroke: rgb(0, 0, 0); stroke-width: 0.38385; }
line.gray {stroke: rgb(204, 204, 204); stroke-width: 0.38385; }
line.brown {stroke: rgb(211.65, 104.55, 30.6); stroke-width: 0.38385; }
line {stroke: rgb(0, 0, 0); }
text.red {fill: rgb(255, 0, 255); font-size: 3.070797px; font-weight: bold; font-family: Helvetica; }
text.green {fill: rgb(0, 255, 0); font-size: 3.070797px; font-weight: bold; font-family: Helvetica; }
text.blue {fill: rgb(0, 0, 255); font-size: 3.070797px; font-weight: bold; font-family: Helvetica; }
text.black {fill: rgb(0, 0, 0); font-size: 3.070797px; font-weight: bold; font-family: Helvetica; }
text.gray {fill: rgb(204, 204, 204); font-size: 3.070797px; font-weight: bold; font-family: Helvetica; }
text.brown {fill: rgb(211.65, 104.55, 30.6); font-size: 3.070797px; font-weight: bold; font-family: Helvetica; }
text {fill: rgb(0, 0, 0); font-size: 3.070797px; font-weight: bold; font-family: Helvetica; text-anchor: middle; alignment-baseline: middle; }

.pseudoknot_connection{stroke-linecap: round; stroke-opacity: 0.2; stroke-width: 1.5; }
.pseudoknot_segment1{stroke-linecap: round; stroke-opacity: 0.4; stroke-width: 3.0708; }
.pseudoknot_segment2{stroke-linecap: round; stroke-opacity: 0.4; stroke-width: 3.0708; }
line.numbering-line{stroke: rgb(204, 204, 204); stroke-width: 0.191925; }
line.predicted{stroke: rgb(0, 0, 0); stroke-dasharray: 2; }
polyline{fill: none; stroke-linejoin: round; }
template{visibility: hidden; }
text.numbering-label{fill: rgb(204, 204, 204); }
]]>
</style></g>
<g><title>0 (position.label in template: 0.5')</title><text x="73.9006" y="264.689" class="green" >5'</text></g>
<g><title>1 (position.label in template: 1.G)</title><text x="74.32" y="257.14" class="black" >G</text></g>
<g><line x1="76.3672" y1="256.833" x2="84.7228" y2="256.833" class="black" /></g>
<g><title>2 (position.label in template: 2.A)</title><text x="74.74" y="249.58" class="black" >A</text></g>
<g><line x1="76.7872" y1="249.273" x2="84.7228" y2="249.273" class="black" /></g>
<g><title>3 (position.label in template: 3.U)</title><text x="74.53" y="242.02" class="black" >U</text></g>
<g><line x1="76.5772" y1="241.713" x2="84.9328" y2="241.713" class="black" /></g>
<g><title>4 (position.label in template: 4.G)</title><text x="74.32" y="234.46" class="black" >G</text></g>
<g><line x1="76.3672" y1="234.153" x2="84.7228" y2="234.153" class="black" /></g>
<g><title>5 (position.label in template: 5.U)</title><text x="66.99" y="233.99" class="black" >U</text></g>
<g><title>6 (position.label in template: 6.G)</title><text x="60.12" y="230.41" class="black" >G</text></g>
<g><title>7 (position.label in template: 7.A)</title><text x="55.98" y="224.38" class="black" >A</text></g>
<g><title>8 (position.label in template: 8.A)</title><text x="54.36" y="216.99" class="black" >A</text></g>
<g><title>9 (position.label in template: 9.A)</title><text x="55.98" y="209.61" class="black" >A</text></g>
<g><title>10 (position.label in template: 10.U)</title><text x="60.33" y="203.57" class="black" >U</text></g>
<g><text x="55.7839" y="198.367" class="numbering-label sequential" >10</text></g>
<g><line x1="59.1177" y1="202.183" x2="57.1254" y2="199.902" class="numbering-line sequential" /></g>
<g><title>11 (position.label in template: 11.C)</title><text x="66.99" y="199.99" class="black" >C</text></g>
<g><title>12 (position.label in template: 12.C)</title><text x="74.53" y="199.52" class="black" >C</text></g>
<g><line x1="76.5772" y1="199.213" x2="84.5128" y2="199.213" class="black" /></g>
<g><title>13 (position.label in template: 13.C)</title><text x="74.53" y="191.96" class="black" >C</text></g>
<g><line x1="76.5772" y1="191.653" x2="84.5128" y2="191.653" class="black" /></g>
<g><title>14 (position.label in template: 14.C)</title><text x="74.53" y="184.4" class="black" >C</text></g>
<g><line x1="76.5772" y1="184.093" x2="84.5128" y2="184.093" class="black" /></g>
<g><title>15 (position.label in template: 15.G)</title><text x="74.32" y="176.84" class="black" >G</text></g>
<g><line x1="76.3672" y1="176.533" x2="84.7228" y2="176.533" class="black" /></g>
<g><title>16 (position.label in template: 16.G)</title><text x="74.32" y="169.28" class="black" >G</text></g>
<g><line x1="76.3672" y1="168.973" x2="84.7228" y2="168.973" class="black" /></g>
<g><title>17 (position.label in template: 17.G)</title><text x="74.32" y="161.72" class="black" >G</text></g>
<g><line x1="76.3672" y1="161.413" x2="84.7228" y2="161.413" class="black" /></g>
<g><title>18 (position.label in template: 18.C)</title><text x="71.13" y="154.97" class="black" >C</text></g>
<g><title>19 (position.label in template: 19.U)</title><text x="73.71" y="147.86" class="black" >U</text></g>
<g><title>20 (position.label in template: 20.C)</title><text x="80.65" y="144.87" class="black" >C</text></g>
<g><text x="80.65" y="137.961" class="numbering-label sequential" >20</text></g>
<g><line x1="80.65" y1="143.028" x2="80.65" y2="139.496" class="numbering-line sequential" /></g>
<g><title>21 (position.label in template: 21.A)</title><text x="87.8" y="147.86" class="black" >A</text></g>
<g><title>22 (position.label in template: 22.A)</title><text x="90.38" y="154.97" class="black" >A</text></g>
<g><title>23 (position.label in template: 23.C)</title><text x="86.77" y="161.72" class="black" >C</text></g>
<g><title>24 (position.label in template: 24.C)</title><text x="86.77" y="169.28" class="black" >C</text></g>
<g><title>25 (position.label in template: 25.U)</title><text x="86.77" y="176.84" class="black" >U</text></g>
<g><title>26 (position.label in template: 26.G)</title><text x="86.56" y="184.4" class="black" >G</text></g>
<g><title>27 (position.label in template: 27.G)</title><text x="86.56" y="191.96" class="black" >G</text></g>
<g><title>28 (position.label in template: 28.G)</title><text x="86.56" y="199.52" class="black" >G</text></g>
<g><title>29 (position.label in template: 29.A)</title><text x="93.45" y="203.43" class="black" >A</text></g>
<g><title>30 (position.label in template: 30.A)</title><text x="97.83" y="209.59" class="black" >A</text></g>
<g><text x="104.198" y="206.909" class="numbering-label sequential" >30</text></g>
<g><line x1="99.5281" y1="208.875" x2="102.355" y2="207.684" class="numbering-line sequential" /></g>
<g><title>31 (position.label in template: 31.C)</title><text x="99.16" y="216.99" class="black" >C</text></g>
<g><title>32 (position.label in template: 32.U)</title><text x="97.62" y="224.39" class="black" >U</text></g>
<g><title>33 (position.label in template: 33.G)</title><text x="93.04" y="230.56" class="black" >G</text></g>
<g><title>34 (position.label in template: 34.C)</title><text x="86.77" y="234.46" class="black" >C</text></g>
<g><title>35 (position.label in template: 35.A)</title><text x="86.98" y="242.02" class="black" >A</text></g>
<g><title>36 (position.label in template: 36.U)</title><text x="86.77" y="249.58" class="black" >U</text></g>
<g><title>37 (position.label in template: 37.C)</title><text x="86.77" y="257.14" class="black" >C</text></g>
<g><title>38 (position.label in template: 38.U)</title><text x="92.12" y="262.49" class="black" >U</text></g>
<g><title>39 (position.label in template: 39.G)</title><text x="99.47" y="262.49" class="black" >G</text></g>
<g><title>40 (position.label in template: 40.A)</title><text x="107.44" y="262.49" class="black" >A</text></g>
<g><title>41 (position.label in template: 41.U)</title><text x="114.8" y="262.49" class="black" >U</text></g>
<g><title>42 (position.label in template: 42.A)</title><text x="120.35" y="257.14" class="black" >A</text></g>
<g><line x1="122.397" y1="256.833" x2="130.333" y2="256.833" class="black" /></g>
<g><title>43 (position.label in template: 43.C)</title><text x="120.14" y="249.58" class="black" >C</text></g>
<g><line x1="122.187" y1="249.273" x2="130.123" y2="249.273" class="black" /></g>
<g><title>44 (position.label in template: 44.U)</title><text x="120.14" y="242.02" class="black" >U</text></g>
<g><line x1="122.187" y1="241.713" x2="130.543" y2="241.713" class="black" /></g>
<g><title>45 (position.label in template: 45.G)</title><text x="116.83" y="235.13" class="black" >G</text></g>
<g><title>46 (position.label in template: 46.G)</title><text x="119.93" y="228.23" class="black" >G</text></g>
<g><line x1="121.977" y1="227.923" x2="130.333" y2="227.923" class="black" /></g>
<g><title>47 (position.label in template: 47.C)</title><text x="115.88" y="221.99" class="black" >C</text></g>
<g><title>48 (position.label in template: 48.A)</title><text x="117.02" y="214.49" class="black" >A</text></g>
<g><title>49 (position.label in template: 49.A)</title><text x="122.69" y="209.48" class="black" >A</text></g>
<g><title>50 (position.label in template: 50.G)</title><text x="129.83" y="209.48" class="black" >G</text></g>
<g><text x="132.311" y="203.032" class="numbering-label sequential" >50</text></g>
<g><line x1="130.492" y1="207.76" x2="131.72" y2="204.567" class="numbering-line sequential" /></g>
<g><title>51 (position.label in template: 51.C)</title><text x="135.71" y="214.49" class="black" >C</text></g>
<g><title>52 (position.label in template: 52.U)</title><text x="136.65" y="221.99" class="black" >U</text></g>
<g><title>53 (position.label in template: 53.U)</title><text x="132.38" y="228.23" class="black" >U</text></g>
<g><title>54 (position.label in template: 54.G)</title><text x="135.27" y="235.13" class="black" >G</text></g>
<g><title>55 (position.label in template: 55.A)</title><text x="132.59" y="242.02" class="black" >A</text></g>
<g><title>56 (position.label in template: 56.G)</title><text x="132.17" y="249.58" class="black" >G</text></g>
<g><title>57 (position.label in template: 57.U)</title><text x="132.38" y="257.14" class="black" >U</text></g>
<g><title>58 (position.label in template: 58.C)</title><text x="137.73" y="262.49" class="black" >C</text></g>
<g><title>59 (position.label in template: 59.U)</title><text x="143.08" y="257.14" class="black" >U</text></g>
<g><line x1="145.127" y1="256.833" x2="153.473" y2="256.833" class="black" /></g>
<g><title>60 (position.label in template: 60.C)</title><text x="143.08" y="249.58" class="black" >C</text></g>
<g><line x1="145.127" y1="249.273" x2="153.063" y2="249.273" class="black" /></g>
<g><title>61 (position.label in template: 61.G)</title><text x="142.86" y="242.02" class="black" >G</text></g>
<g><line x1="144.907" y1="241.713" x2="153.263" y2="241.713" class="black" /></g>
<g><title>62 (position.label in template: 62.U)</title><text x="143.08" y="234.46" class="black" >U</text></g>
<g><line x1="145.127" y1="234.153" x2="153.473" y2="234.153" class="black" /></g>
<g><title>63 (position.label in template: 63.A)</title><text x="136.23" y="231.73" class="black" >A</text></g>
<g><title>64 (position.label in template: 64.G)</title><text x="132.87" y="224.77" class="black" >G</text></g>
<g><title>65 (position.label in template: 65.A)</title><text x="136.23" y="217.8" class="black" >A</text></g>
<g><title>66 (position.label in template: 66.G)</title><text x="142.86" y="215.07" class="black" >G</text></g>
<g><line x1="144.907" y1="214.763" x2="153.263" y2="214.763" class="black" /></g>
<g><title>67 (position.label in template: 67.G)</title><text x="142.86" y="207.51" class="black" >G</text></g>
<g><line x1="144.907" y1="207.203" x2="153.263" y2="207.203" class="black" /></g>
<g><title>68 (position.label in template: 68.G)</title><text x="142.86" y="199.95" class="black" >G</text></g>
<g><line x1="144.907" y1="199.643" x2="153.263" y2="199.643" class="black" /></g>
<g><title>69 (position.label in template: 69.G)</title><text x="142.86" y="192.39" class="black" >G</text></g>
<g><line x1="144.907" y1="192.083" x2="153.263" y2="192.083" class="black" /></g>
<g><title>70 (position.label in template: 70.G)</title><text x="142.86" y="184.83" class="black" >G</text></g>
<g><line x1="144.907" y1="184.523" x2="153.263" y2="184.523" class="black" /></g>
<g><title>71 (position.label in template: 71.G)</title><text x="142.86" y="177.27" class="black" >G</text></g>
<g><line x1="144.907" y1="176.963" x2="153.263" y2="176.963" class="black" /></g>
<g><title>72 (position.label in template: 72.U)</title><text x="143.08" y="169.71" class="black" >U</text></g>
<g><line x1="145.127" y1="169.403" x2="153.063" y2="169.403" class="black" /></g>
<g><title>73 (position.label in template: 73.A)</title><text x="136.33" y="166.75" class="black" >A</text></g>
<g><title>74 (position.label in template: 74.G)</title><text x="130.17" y="161.83" class="black" >G</text></g>
<g><title>75 (position.label in template: 75.A)</title><text x="126.6" y="155.4" class="black" >A</text></g>
<g><title>76 (position.label in template: 76.A)</title><text x="124.73" y="148.08" class="black" >A</text></g>
<g><title>77 (position.label in template: 77.U)</title><text x="124.95" y="140.53" class="black" >U</text></g>
<g><title>78 (position.label in template: 78.U)</title><text x="127.64" y="133.46" class="black" >U</text></g>
<g><line x1="129.077" y1="131.695" x2="134.893" y2="125.791" class="black" /></g>
<g><title>79 (position.label in template: 79.C)</title><text x="122.19" y="128.22" class="black" >C</text></g>
<g><line x1="123.59" y1="126.42" x2="129.06" y2="120.586" class="black" /></g>
<g><title>80 (position.label in template: 80.C)</title><text x="116.74" y="122.98" class="black" >C</text></g>
<g><line x1="118.14" y1="121.18" x2="123.61" y2="115.346" class="black" /></g>
<g><title>81 (position.label in template: 81.A)</title><text x="111.49" y="117.75" class="black" >A</text></g>
<g><line x1="112.89" y1="115.95" x2="118.37" y2="110.106" class="black" /></g>
<g><title>82 (position.label in template: 82.G)</title><text x="105.63" y="112.51" class="black" >G</text></g>
<g><line x1="107.066" y1="110.744" x2="112.884" y2="104.832" class="black" /></g>
<g><title>83 (position.label in template: 83.G)</title><text x="100.17" y="107.27" class="black" >G</text></g>
<g><line x1="101.607" y1="105.505" x2="107.433" y2="99.5912" class="black" /></g>
<g><title>84 (position.label in template: 84.U)</title><text x="94.93" y="102.03" class="black" >U</text></g>
<g><line x1="96.3668" y1="100.265" x2="102.183" y2="94.3612" class="black" /></g>
<g><title>85 (position.label in template: 85.G)</title><text x="87.6" y="99.49" class="black" >G</text></g>
<g><title>86 (position.label in template: 86.U)</title><text x="84.99" y="92.47" class="black" >U</text></g>
<g><line x1="86.4268" y1="90.7046" x2="92.2432" y2="84.8012" class="black" /></g>
<g><title>87 (position.label in template: 87.A)</title><text x="77.65" y="92.98" class="black" >A</text></g>
<g><title>88 (position.label in template: 88.G)</title><text x="70.56" y="89.44" class="black" >G</text></g>
<g><title>89 (position.label in template: 89.C)</title><text x="66.96" y="82.91" class="black" >C</text></g>
<g><title>90 (position.label in template: 90.G)</title><text x="66.97" y="75.35" class="black" >G</text></g>
<g><line x1="68.4068" y1="73.5846" x2="74.2232" y2="67.6812" class="black" /></g>
<g><title>91 (position.label in template: 91.G)</title><text x="59.41" y="75.51" class="black" >G</text></g>
<g><title>92 (position.label in template: 92.U)</title><text x="53.25" y="71.44" class="black" >U</text></g>
<g><title>93 (position.label in template: 93.G)</title><text x="50" y="64.52" class="black" >G</text></g>
<g><title>94 (position.label in template: 94.A)</title><text x="51.74" y="57.08" class="black" >A</text></g>
<g><title>95 (position.label in template: 95.A)</title><text x="56.98" y="51.62" class="black" >A</text></g>
<g><title>96 (position.label in template: 96.A)</title><text x="64.36" y="50" class="black" >A</text></g>
<g><title>97 (position.label in template: 97.U)</title><text x="71.2" y="52.76" class="black" >U</text></g>
<g><title>98 (position.label in template: 98.G)</title><text x="75.31" y="58.97" class="black" >G</text></g>
<g><title>99 (position.label in template: 99.C)</title><text x="75.66" y="66.53" class="black" >C</text></g>
<g><title>100 (position.label in template: 100.G)</title><text x="82.16" y="63.05" class="black" >G</text></g>
<g><text x="81.0078" y="56.2375" class="numbering-label sequential" >100</text></g>
<g><line x1="81.8527" y1="61.2333" x2="81.2675" y2="57.7729" class="numbering-line sequential" /></g>
<g><title>101 (position.label in template: 101.U)</title><text x="89.85" y="64.13" class="black" >U</text></g>
<g><title>102 (position.label in template: 102.A)</title><text x="95.51" y="69.37" class="black" >A</text></g>
<g><title>103 (position.label in template: 103.G)</title><text x="96.47" y="76.8" class="black" >G</text></g>
<g><title>104 (position.label in template: 104.A)</title><text x="93.68" y="83.65" class="black" >A</text></g>
<g><title>105 (position.label in template: 105.G)</title><text x="100.38" y="86.19" class="black" >G</text></g>
<g><title>106 (position.label in template: 106.A)</title><text x="103.62" y="93.21" class="black" >A</text></g>
<g><title>107 (position.label in template: 107.U)</title><text x="108.87" y="98.44" class="black" >U</text></g>
<g><title>108 (position.label in template: 108.C)</title><text x="114.32" y="103.68" class="black" >C</text></g>
<g><title>109 (position.label in template: 109.U)</title><text x="119.77" y="108.92" class="black" >U</text></g>
<g><title>110 (position.label in template: 110.G)</title><text x="125.01" y="114.16" class="black" >G</text></g>
<g><title>111 (position.label in template: 111.G)</title><text x="130.46" y="119.4" class="black" >G</text></g>
<g><title>112 (position.label in template: 112.A)</title><text x="136.33" y="124.64" class="black" >A</text></g>
<g><title>113 (position.label in template: 113.G)</title><text x="142.86" y="121.67" class="black" >G</text></g>
<g><line x1="144.907" y1="121.363" x2="153.263" y2="121.363" class="black" /></g>
<g><title>114 (position.label in template: 114.G)</title><text x="142.86" y="114.11" class="black" >G</text></g>
<g><line x1="144.907" y1="113.803" x2="153.263" y2="113.803" class="black" /></g>
<g><title>115 (position.label in template: 115.A)</title><text x="141.11" y="106.87" class="black" >A</text></g>
<g><title>116 (position.label in template: 116.A)</title><text x="145.62" y="100.81" class="black" >A</text></g>
<g><title>117 (position.label in template: 117.U)</title><text x="152.97" y="100.81" class="black" >U</text></g>
<g><title>118 (position.label in template: 118.A)</title><text x="157.69" y="106.87" class="black" >A</text></g>
<g><title>119 (position.label in template: 119.C)</title><text x="155.31" y="114.11" class="black" >C</text></g>
<g><title>120 (position.label in template: 120.C)</title><text x="155.31" y="121.67" class="black" >C</text></g>
<g><title>121 (position.label in template: 121.G)</title><text x="162.06" y="124.64" class="black" >G</text></g>
<g><title>122 (position.label in template: 122.G)</title><text x="167.8" y="129.56" class="black" >G</text></g>
<g><title>123 (position.label in template: 123.U)</title><text x="172" y="135.98" class="black" >U</text></g>
<g><title>124 (position.label in template: 124.G)</title><text x="173.66" y="143.31" class="black" >G</text></g>
<g><title>125 (position.label in template: 125.G)</title><text x="173.23" y="150.85" class="black" >G</text></g>
<g><line x1="172.351" y1="152.392" x2="168.889" y2="159.674" class="black" /></g>
<g><title>126 (position.label in template: 126.C)</title><text x="180.21" y="154.21" class="black" >C</text></g>
<g><line x1="179.275" y1="155.724" x2="175.515" y2="163.052" class="black" /></g>
<g><title>127 (position.label in template: 127.G)</title><text x="187.46" y="155.47" class="black" >G</text></g>
<g><title>128 (position.label in template: 128.A)</title><text x="191.31" y="162.2" class="black" >A</text></g>
<g><title>129 (position.label in template: 129.A)</title><text x="187.96" y="168.98" class="black" >A</text></g>
<g><title>130 (position.label in template: 130.G)</title><text x="180.1" y="170.33" class="black" >G</text></g>
<g><title>131 (position.label in template: 131.G)</title><text x="174.58" y="165.18" class="black" >G</text></g>
<g><title>132 (position.label in template: 132.C)</title><text x="168.01" y="161.83" class="black" >C</text></g>
<g><title>133 (position.label in template: 133.G)</title><text x="162.06" y="166.75" class="black" >G</text></g>
<g><title>134 (position.label in template: 134.G)</title><text x="155.11" y="169.71" class="black" >G</text></g>
<g><title>135 (position.label in template: 135.C)</title><text x="155.31" y="177.27" class="black" >C</text></g>
<g><title>136 (position.label in template: 136.C)</title><text x="155.31" y="184.83" class="black" >C</text></g>
<g><title>137 (position.label in template: 137.C)</title><text x="155.31" y="192.39" class="black" >C</text></g>
<g><title>138 (position.label in template: 138.C)</title><text x="155.31" y="199.95" class="black" >C</text></g>
<g><title>139 (position.label in template: 139.C)</title><text x="155.31" y="207.51" class="black" >C</text></g>
<g><title>140 (position.label in template: 140.U)</title><text x="155.31" y="215.07" class="black" >U</text></g>
<g><title>141 (position.label in template: 141.G)</title><text x="159.81" y="220.99" class="black" >G</text></g>
<g><title>142 (position.label in template: 142.G)</title><text x="159.81" y="228.55" class="black" >G</text></g>
<g><title>143 (position.label in template: 143.A)</title><text x="155.52" y="234.46" class="black" >A</text></g>
<g><title>144 (position.label in template: 144.C)</title><text x="155.31" y="242.02" class="black" >C</text></g>
<g><title>145 (position.label in template: 145.G)</title><text x="155.11" y="249.58" class="black" >G</text></g>
<g><title>146 (position.label in template: 146.A)</title><text x="155.52" y="257.14" class="black" >A</text></g>
<g><title>147 (position.label in template: 147.A)</title><text x="160.87" y="262.49" class="black" >A</text></g>
<g><title>148 (position.label in template: 148.G)</title><text x="168.01" y="262.49" class="black" >G</text></g>
<g><title>149 (position.label in template: 149.A)</title><text x="175.99" y="262.49" class="black" >A</text></g>
<g><title>150 (position.label in template: 150.C)</title><text x="181.13" y="257.14" class="black" >C</text></g>
<g><line x1="183.177" y1="256.833" x2="191.113" y2="256.833" class="black" /></g>
<g><text x="174.711" y="254.584" class="numbering-label sequential" >150</text></g>
<g><line x1="179.418" y1="256.458" x2="177.474" y2="255.685" class="numbering-line sequential" /></g>
<g><title>151 (position.label in template: 151.U)</title><text x="181.13" y="249.58" class="black" >U</text></g>
<g><line x1="183.177" y1="249.273" x2="191.113" y2="249.273" class="black" /></g>
<g><title>152 (position.label in template: 152.G)</title><text x="177.82" y="242.69" class="black" >G</text></g>
<g><title>153 (position.label in template: 153.A)</title><text x="181.33" y="235.79" class="black" >A</text></g>
<g><line x1="183.377" y1="235.483" x2="191.323" y2="235.483" class="black" /></g>
<g><title>154 (position.label in template: 154.C)</title><text x="181.13" y="228.23" class="black" >C</text></g>
<g><line x1="183.177" y1="227.923" x2="191.113" y2="227.923" class="black" /></g>
<g><title>155 (position.label in template: 155.G)</title><text x="180.92" y="220.67" class="black" >G</text></g>
<g><line x1="182.967" y1="220.363" x2="191.323" y2="220.363" class="black" /></g>
<g><title>156 (position.label in template: 156.C)</title><text x="181.13" y="213.11" class="black" >C</text></g>
<g><line x1="183.177" y1="212.803" x2="191.113" y2="212.803" class="black" /></g>
<g><title>157 (position.label in template: 157.U)</title><text x="181.13" y="205.55" class="black" >U</text></g>
<g><line x1="183.177" y1="205.243" x2="191.523" y2="205.243" class="black" /></g>
<g><title>158 (position.label in template: 158.C)</title><text x="175.14" y="200.93" class="black" >C</text></g>
<g><title>159 (position.label in template: 159.A)</title><text x="172.29" y="194.02" class="black" >A</text></g>
<g><title>160 (position.label in template: 160.G)</title><text x="172.49" y="186.48" class="black" >G</text></g>
<g><title>161 (position.label in template: 161.G)</title><text x="176.61" y="180.15" class="black" >G</text></g>
<g><title>162 (position.label in template: 162.U)</title><text x="183.47" y="176.54" class="black" >U</text></g>
<g><title>163 (position.label in template: 163.G)</title><text x="190.82" y="176.54" class="black" >G</text></g>
<g><title>164 (position.label in template: 164.C)</title><text x="197.67" y="180.15" class="black" >C</text></g>
<g><title>165 (position.label in template: 165.G)</title><text x="201.59" y="186.48" class="black" >G</text></g>
<g><title>166 (position.label in template: 166.A)</title><text x="202.61" y="194.02" class="black" >A</text></g>
<g><title>167 (position.label in template: 167.A)</title><text x="199.56" y="200.93" class="black" >A</text></g>
<g><title>168 (position.label in template: 168.A)</title><text x="193.57" y="205.55" class="black" >A</text></g>
<g><title>169 (position.label in template: 169.G)</title><text x="193.16" y="213.11" class="black" >G</text></g>
<g><title>170 (position.label in template: 170.C)</title><text x="193.37" y="220.67" class="black" >C</text></g>
<g><title>171 (position.label in template: 171.G)</title><text x="193.16" y="228.23" class="black" >G</text></g>
<g><title>172 (position.label in template: 172.U)</title><text x="193.37" y="235.79" class="black" >U</text></g>
<g><title>173 (position.label in template: 173.G)</title><text x="196.26" y="242.69" class="black" >G</text></g>
<g><title>174 (position.label in template: 174.G)</title><text x="193.16" y="249.58" class="black" >G</text></g>
<g><title>175 (position.label in template: 175.G)</title><text x="193.16" y="257.14" class="black" >G</text></g>
<g><title>176 (position.label in template: 176.G)</title><text x="198.5" y="262.49" class="black" >G</text></g>
<g><title>177 (position.label in template: 177.A)</title><text x="206.48" y="262.49" class="black" >A</text></g>
<g><title>178 (position.label in template: 178.G)</title><text x="213.62" y="262.49" class="black" >G</text></g>
<g><title>179 (position.label in template: 179.C)</title><text x="221.39" y="262.49" class="black" >C</text></g>
<g><title>180 (position.label in template: 180.A)</title><text x="229.16" y="262.49" class="black" >A</text></g>
<g><title>181 (position.label in template: 181.A)</title><text x="236.72" y="262.49" class="black" >A</text></g>
<g><title>182 (position.label in template: 182.A)</title><text x="244.28" y="262.49" class="black" >A</text></g>
<g><title>183 (position.label in template: 183.C)</title><text x="249.42" y="257.14" class="black" >C</text></g>
<g><line x1="251.467" y1="256.833" x2="259.403" y2="256.833" class="black" /></g>
<g><title>184 (position.label in template: 184.A)</title><text x="249.62" y="249.58" class="black" >A</text></g>
<g><line x1="251.667" y1="249.273" x2="259.613" y2="249.273" class="black" /></g>
<g><title>185 (position.label in template: 185.G)</title><text x="249.21" y="242.02" class="black" >G</text></g>
<g><line x1="251.257" y1="241.713" x2="259.613" y2="241.713" class="black" /></g>
<g><title>186 (position.label in template: 186.G)</title><text x="249.21" y="234.46" class="black" >G</text></g>
<g><line x1="251.257" y1="234.153" x2="259.613" y2="234.153" class="black" /></g>
<g><title>187 (position.label in template: 187.A)</title><text x="243.92" y="229.5" class="black" >A</text></g>
<g><title>188 (position.label in template: 188.U)</title><text x="241.36" y="222.32" class="black" >U</text></g>
<g><title>189 (position.label in template: 189.U)</title><text x="243.03" y="214.95" class="black" >U</text></g>
<g><title>190 (position.label in template: 190.A)</title><text x="248.46" y="209.48" class="black" >A</text></g>
<g><title>191 (position.label in template: 191.G)</title><text x="255.33" y="207.46" class="black" >G</text></g>
<g><title>192 (position.label in template: 192.A)</title><text x="263.03" y="209.48" class="black" >A</text></g>
<g><title>193 (position.label in template: 193.U)</title><text x="268.04" y="214.95" class="black" >U</text></g>
<g><title>194 (position.label in template: 194.A)</title><text x="269.92" y="222.32" class="black" >A</text></g>
<g><title>195 (position.label in template: 195.C)</title><text x="267.37" y="229.5" class="black" >C</text></g>
<g><title>196 (position.label in template: 196.C)</title><text x="261.66" y="234.46" class="black" >C</text></g>
<g><title>197 (position.label in template: 197.C)</title><text x="261.66" y="242.02" class="black" >C</text></g>
<g><title>198 (position.label in template: 198.U)</title><text x="261.66" y="249.58" class="black" >U</text></g>
<g><title>199 (position.label in template: 199.G)</title><text x="261.45" y="257.14" class="black" >G</text></g>
<g><title>200 (position.label in template: 200.G)</title><text x="266.791" y="262.491" class="black" >G</text></g>
<g><title>201 (position.label in template: 201.3')</title><text x="266.659" y="270.051" class="green" >3'</text></g>
<g><line x1="74.0141" y1="262.338" x2="74.2064" y2="258.877" class="gray" /></g>
<g><line x1="74.4336" y1="254.789" x2="74.6264" y2="251.317" class="gray" /></g>
<g><line x1="74.6832" y1="247.227" x2="74.5868" y2="243.759" class="gray" /></g>
<g><line x1="74.4732" y1="239.667" x2="74.3768" y2="236.199" class="gray" /></g>
<g><line x1="72.277" y1="234.022" x2="69.033" y2="233.814" class="gray" /></g>
<g><line x1="65.1745" y1="232.737" x2="61.9355" y2="231.049" class="gray" /></g>
<g><line x1="58.9613" y1="228.415" x2="57.1387" y2="225.761" class="gray" /></g>
<g><line x1="55.5416" y1="222.073" x2="54.7984" y2="218.683" class="gray" /></g>
<g><line x1="54.7989" y1="214.683" x2="55.5411" y2="211.303" class="gray" /></g>
<g><line x1="57.1764" y1="207.642" x2="59.1336" y2="204.924" class="gray" /></g>
<g><line x1="62.1332" y1="202.294" x2="65.1868" y2="200.652" class="gray" /></g>
<g><line x1="69.0332" y1="199.556" x2="72.4868" y2="199.34" class="gray" /></g>
<g><line x1="74.53" y1="197.166" x2="74.53" y2="193.7" class="gray" /></g>
<g><line x1="74.53" y1="189.606" x2="74.53" y2="186.14" class="gray" /></g>
<g><line x1="74.4732" y1="182.047" x2="74.3768" y2="178.579" class="gray" /></g>
<g><line x1="74.32" y1="174.486" x2="74.32" y2="171.02" class="gray" /></g>
<g><line x1="74.32" y1="166.926" x2="74.32" y2="163.46" class="gray" /></g>
<g><line x1="73.4453" y1="159.562" x2="72.0047" y2="156.514" class="gray" /></g>
<g><line x1="71.8283" y1="152.739" x2="73.0117" y2="149.477" class="gray" /></g>
<g><line x1="75.5901" y1="146.743" x2="78.7699" y2="145.373" class="gray" /></g>
<g><line x1="82.5387" y1="145.353" x2="85.9113" y2="146.763" class="gray" /></g>
<g><line x1="88.4983" y1="149.477" x2="89.6817" y2="152.739" class="gray" /></g>
<g><line x1="89.4145" y1="156.468" x2="87.7355" y2="159.608" class="gray" /></g>
<g><line x1="86.77" y1="163.46" x2="86.77" y2="166.926" class="gray" /></g>
<g><line x1="86.77" y1="171.02" x2="86.77" y2="174.486" class="gray" /></g>
<g><line x1="86.7132" y1="178.579" x2="86.6168" y2="182.047" class="gray" /></g>
<g><line x1="86.56" y1="186.14" x2="86.56" y2="189.606" class="gray" /></g>
<g><line x1="86.56" y1="193.7" x2="86.56" y2="197.166" class="gray" /></g>
<g><line x1="88.3405" y1="200.223" x2="91.6695" y2="202.113" class="gray" /></g>
<g><line x1="94.6363" y1="204.791" x2="96.6437" y2="207.614" class="gray" /></g>
<g><line x1="98.1921" y1="211.298" x2="98.7979" y2="214.668" class="gray" /></g>
<g><line x1="98.7429" y1="218.687" x2="98.0371" y2="222.079" class="gray" /></g>
<g><line x1="96.3998" y1="225.727" x2="94.2602" y2="228.609" class="gray" /></g>
<g><line x1="91.3016" y1="231.334" x2="88.5084" y2="233.072" class="gray" /></g>
<g><line x1="86.8268" y1="236.199" x2="86.9232" y2="239.667" class="gray" /></g>
<g><line x1="86.9232" y1="243.759" x2="86.8268" y2="247.227" class="gray" /></g>
<g><line x1="86.77" y1="251.32" x2="86.77" y2="254.786" class="gray" /></g>
<g><line x1="88.2176" y1="258.281" x2="90.6724" y2="260.735" class="gray" /></g>
<g><line x1="94.1672" y1="262.183" x2="97.4228" y2="262.183" class="gray" /></g>
<g><line x1="101.517" y1="262.183" x2="105.393" y2="262.183" class="gray" /></g>
<g><line x1="109.487" y1="262.183" x2="112.753" y2="262.183" class="gray" /></g>
<g><line x1="116.274" y1="260.762" x2="118.876" y2="258.254" class="gray" /></g>
<g><line x1="120.293" y1="254.787" x2="120.197" y2="251.319" class="gray" /></g>
<g><line x1="120.14" y1="247.226" x2="120.14" y2="243.76" class="gray" /></g>
<g><line x1="119.254" y1="239.868" x2="117.716" y2="236.668" class="gray" /></g>
<g><line x1="117.669" y1="232.956" x2="119.091" y2="229.79" class="gray" /></g>
<g><line x1="118.815" y1="226.206" x2="116.995" y2="223.4" class="gray" /></g>
<g><line x1="116.188" y1="219.659" x2="116.712" y2="216.207" class="gray" /></g>
<g><line x1="118.554" y1="212.827" x2="121.156" y2="210.528" class="gray" /></g>
<g><line x1="124.737" y1="209.173" x2="127.783" y2="209.173" class="gray" /></g>
<g><line x1="131.388" y1="210.501" x2="134.152" y2="212.855" class="gray" /></g>
<g><line x1="135.965" y1="216.214" x2="136.395" y2="219.652" class="gray" /></g>
<g><line x1="135.494" y1="223.372" x2="133.536" y2="226.233" class="gray" /></g>
<g><line x1="133.171" y1="229.811" x2="134.479" y2="232.935" class="gray" /></g>
<g><line x1="134.528" y1="236.731" x2="133.332" y2="239.805" class="gray" /></g>
<g><line x1="132.476" y1="243.757" x2="132.284" y2="247.229" class="gray" /></g>
<g><line x1="132.227" y1="251.319" x2="132.323" y2="254.787" class="gray" /></g>
<g><line x1="133.828" y1="258.281" x2="136.282" y2="260.735" class="gray" /></g>
<g><line x1="139.178" y1="260.735" x2="141.632" y2="258.281" class="gray" /></g>
<g><line x1="143.08" y1="254.786" x2="143.08" y2="251.32" class="gray" /></g>
<g><line x1="143.02" y1="247.227" x2="142.92" y2="243.759" class="gray" /></g>
<g><line x1="142.92" y1="239.667" x2="143.02" y2="236.199" class="gray" /></g>
<g><line x1="141.178" y1="233.395" x2="138.132" y2="232.181" class="gray" /></g>
<g><line x1="135.34" y1="229.579" x2="133.76" y2="226.307" class="gray" /></g>
<g><line x1="133.759" y1="222.619" x2="135.341" y2="219.337" class="gray" /></g>
<g><line x1="138.123" y1="216.713" x2="140.967" y2="215.542" class="gray" /></g>
<g><line x1="142.86" y1="212.716" x2="142.86" y2="209.25" class="gray" /></g>
<g><line x1="142.86" y1="205.156" x2="142.86" y2="201.69" class="gray" /></g>
<g><line x1="142.86" y1="197.596" x2="142.86" y2="194.13" class="gray" /></g>
<g><line x1="142.86" y1="190.036" x2="142.86" y2="186.57" class="gray" /></g>
<g><line x1="142.86" y1="182.476" x2="142.86" y2="179.01" class="gray" /></g>
<g><line x1="142.92" y1="174.917" x2="143.02" y2="171.449" class="gray" /></g>
<g><line x1="141.205" y1="168.581" x2="138.205" y2="167.265" class="gray" /></g>
<g><line x1="134.73" y1="165.165" x2="131.77" y2="162.801" class="gray" /></g>
<g><line x1="129.176" y1="159.733" x2="127.594" y2="156.883" class="gray" /></g>
<g><line x1="126.093" y1="153.109" x2="125.237" y2="149.756" class="gray" /></g>
<g><line x1="124.79" y1="145.727" x2="124.89" y2="142.269" class="gray" /></g>
<g><line x1="125.678" y1="138.31" x2="126.912" y2="135.066" class="gray" /></g>
<g><line x1="126.164" y1="131.734" x2="123.666" y2="129.332" class="gray" /></g>
<g><line x1="120.714" y1="126.494" x2="118.216" y2="124.092" class="gray" /></g>
<g><line x1="115.29" y1="121.228" x2="112.94" y2="118.888" class="gray" /></g>
<g><line x1="109.964" y1="116.078" x2="107.156" y2="113.568" class="gray" /></g>
<g><line x1="104.153" y1="110.785" x2="101.647" y2="108.38" class="gray" /></g>
<g><line x1="98.7224" y1="105.515" x2="96.3776" y2="103.171" class="gray" /></g>
<g><line x1="92.9956" y1="101.053" x2="89.5344" y2="99.8532" class="gray" /></g>
<g><line x1="86.8866" y1="97.2641" x2="85.7034" y2="94.0818" class="gray" /></g>
<g><line x1="82.9477" y1="92.3048" x2="79.6923" y2="92.531" class="gray" /></g>
<g><line x1="75.8184" y1="91.7584" x2="72.3916" y2="90.0474" class="gray" /></g>
<g><line x1="69.5716" y1="87.3401" x2="67.9484" y2="84.3957" class="gray" /></g>
<g><line x1="66.9627" y1="80.5557" x2="66.9673" y2="77.0901" class="gray" /></g>
<g><line x1="64.9233" y1="75.0862" x2="61.4567" y2="75.1596" class="gray" /></g>
<g><line x1="57.702" y1="74.0744" x2="54.958" y2="72.2615" class="gray" /></g>
<g><line x1="52.3797" y1="69.2799" x2="50.8703" y2="66.0659" class="gray" /></g>
<g><line x1="50.4662" y1="62.2195" x2="51.2738" y2="58.7663" class="gray" /></g>
<g><line x1="53.1575" y1="55.2959" x2="55.5625" y2="52.79" class="gray" /></g>
<g><line x1="58.9796" y1="50.874" x2="62.3604" y2="50.1319" class="gray" /></g>
<g><line x1="66.2585" y1="50.459" x2="69.3015" y2="51.6869" class="gray" /></g>
<g><line x1="72.3299" y1="54.1601" x2="74.1801" y2="56.9558" class="gray" /></g>
<g><line x1="75.4047" y1="60.7079" x2="75.5653" y2="64.1779" class="gray" /></g>
<g><line x1="77.4648" y1="65.2567" x2="80.3552" y2="63.7092" class="gray" /></g>
<g><line x1="84.1873" y1="63.0276" x2="87.8227" y2="63.5382" class="gray" /></g>
<g><line x1="91.3523" y1="65.2137" x2="94.0077" y2="67.6721" class="gray" /></g>
<g><line x1="95.7723" y1="71.0932" x2="96.2077" y2="74.4626" class="gray" /></g>
<g><line x1="95.6978" y1="78.3889" x2="94.4522" y2="81.447" class="gray" /></g>
<g><line x1="95.5943" y1="84.0686" x2="98.4657" y2="85.1572" class="gray" /></g>
<g><line x1="101.238" y1="87.7417" x2="102.762" y2="91.0441" class="gray" /></g>
<g><line x1="105.07" y1="94.3477" x2="107.42" y2="96.6881" class="gray" /></g>
<g><line x1="110.346" y1="99.5518" x2="112.844" y2="101.954" class="gray" /></g>
<g><line x1="115.796" y1="104.792" x2="118.294" y2="107.194" class="gray" /></g>
<g><line x1="121.218" y1="110.061" x2="123.562" y2="112.405" class="gray" /></g>
<g><line x1="126.486" y1="115.272" x2="128.984" y2="117.674" class="gray" /></g>
<g><line x1="131.987" y1="120.456" x2="134.803" y2="122.97" class="gray" /></g>
<g><line x1="138.194" y1="123.485" x2="140.996" y2="122.21" class="gray" /></g>
<g><line x1="142.86" y1="119.316" x2="142.86" y2="115.85" class="gray" /></g>
<g><line x1="142.379" y1="111.813" x2="141.591" y2="108.553" class="gray" /></g>
<g><line x1="142.332" y1="104.921" x2="144.398" y2="102.145" class="gray" /></g>
<g><line x1="147.667" y1="100.503" x2="150.923" y2="100.503" class="gray" /></g>
<g><line x1="154.228" y1="102.118" x2="156.432" y2="104.948" class="gray" /></g>
<g><line x1="157.051" y1="108.508" x2="155.949" y2="111.858" class="gray" /></g>
<g><line x1="155.31" y1="115.85" x2="155.31" y2="119.316" class="gray" /></g>
<g><line x1="157.184" y1="122.187" x2="160.186" y2="123.508" class="gray" /></g>
<g><line x1="163.614" y1="125.665" x2="166.246" y2="127.921" class="gray" /></g>
<g><line x1="168.921" y1="130.966" x2="170.879" y2="133.96" class="gray" /></g>
<g><line x1="172.452" y1="137.67" x2="173.208" y2="141.006" class="gray" /></g>
<g><line x1="173.543" y1="145.047" x2="173.347" y2="148.499" class="gray" /></g>
<g><line x1="175.075" y1="151.431" x2="178.365" y2="153.015" class="gray" /></g>
<g><line x1="182.227" y1="154.253" x2="185.443" y2="154.812" class="gray" /></g>
<g><line x1="188.477" y1="156.94" x2="190.293" y2="160.116" class="gray" /></g>
<g><line x1="190.403" y1="163.728" x2="188.867" y2="166.838" class="gray" /></g>
<g><line x1="185.942" y1="169.019" x2="182.118" y2="169.676" class="gray" /></g>
<g><line x1="178.603" y1="168.626" x2="176.077" y2="166.269" class="gray" /></g>
<g><line x1="172.756" y1="163.943" x2="169.834" y2="162.453" class="gray" /></g>
<g><line x1="166.432" y1="162.827" x2="163.638" y2="165.138" class="gray" /></g>
<g><line x1="160.177" y1="167.245" x2="156.993" y2="168.601" class="gray" /></g>
<g><line x1="155.164" y1="171.449" x2="155.256" y2="174.916" class="gray" /></g>
<g><line x1="155.31" y1="179.01" x2="155.31" y2="182.476" class="gray" /></g>
<g><line x1="155.31" y1="186.57" x2="155.31" y2="190.036" class="gray" /></g>
<g><line x1="155.31" y1="194.13" x2="155.31" y2="197.596" class="gray" /></g>
<g><line x1="155.31" y1="201.69" x2="155.31" y2="205.156" class="gray" /></g>
<g><line x1="155.31" y1="209.25" x2="155.31" y2="212.716" class="gray" /></g>
<g><line x1="156.549" y1="216.393" x2="158.571" y2="219.053" class="gray" /></g>
<g><line x1="159.81" y1="222.73" x2="159.81" y2="226.196" class="gray" /></g>
<g><line x1="158.607" y1="229.9" x2="156.723" y2="232.496" class="gray" /></g>
<g><line x1="155.463" y1="236.199" x2="155.367" y2="239.667" class="gray" /></g>
<g><line x1="155.256" y1="243.759" x2="155.164" y2="247.226" class="gray" /></g>
<g><line x1="155.221" y1="251.317" x2="155.409" y2="254.789" class="gray" /></g>
<g><line x1="156.968" y1="258.281" x2="159.422" y2="260.735" class="gray" /></g>
<g><line x1="162.917" y1="262.183" x2="165.963" y2="262.183" class="gray" /></g>
<g><line x1="170.057" y1="262.183" x2="173.943" y2="262.183" class="gray" /></g>
<g><line x1="177.408" y1="260.707" x2="179.712" y2="258.309" class="gray" /></g>
<g><line x1="181.13" y1="254.786" x2="181.13" y2="251.32" class="gray" /></g>
<g><line x1="180.244" y1="247.428" x2="178.706" y2="244.228" class="gray" /></g>
<g><line x1="178.748" y1="240.558" x2="180.402" y2="237.308" class="gray" /></g>
<g><line x1="181.276" y1="233.436" x2="181.184" y2="229.969" class="gray" /></g>
<g><line x1="181.073" y1="225.877" x2="180.977" y2="222.409" class="gray" /></g>
<g><line x1="180.977" y1="218.317" x2="181.073" y2="214.849" class="gray" /></g>
<g><line x1="181.13" y1="210.756" x2="181.13" y2="207.29" class="gray" /></g>
<g><line x1="179.509" y1="203.993" x2="176.761" y2="201.873" class="gray" /></g>
<g><line x1="174.359" y1="198.73" x2="173.071" y2="195.605" class="gray" /></g>
<g><line x1="172.344" y1="191.666" x2="172.436" y2="188.219" class="gray" /></g>
<g><line x1="173.607" y1="184.457" x2="175.493" y2="181.559" class="gray" /></g>
<g><line x1="178.422" y1="178.89" x2="181.658" y2="177.186" class="gray" /></g>
<g><line x1="185.517" y1="176.233" x2="188.773" y2="176.233" class="gray" /></g>
<g><line x1="192.631" y1="177.187" x2="195.859" y2="178.888" class="gray" /></g>
<g><line x1="198.748" y1="181.583" x2="200.512" y2="184.432" class="gray" /></g>
<g><line x1="201.864" y1="188.202" x2="202.336" y2="191.684" class="gray" /></g>
<g><line x1="201.783" y1="195.586" x2="200.387" y2="198.75" class="gray" /></g>
<g><line x1="197.939" y1="201.873" x2="195.191" y2="203.993" class="gray" /></g>
<g><line x1="193.459" y1="207.287" x2="193.271" y2="210.759" class="gray" /></g>
<g><line x1="193.217" y1="214.849" x2="193.313" y2="218.317" class="gray" /></g>
<g><line x1="193.313" y1="222.409" x2="193.217" y2="225.877" class="gray" /></g>
<g><line x1="193.217" y1="229.969" x2="193.313" y2="233.437" class="gray" /></g>
<g><line x1="194.161" y1="237.371" x2="195.469" y2="240.495" class="gray" /></g>
<g><line x1="195.42" y1="244.25" x2="194" y2="247.406" class="gray" /></g>
<g><line x1="193.16" y1="251.32" x2="193.16" y2="254.786" class="gray" /></g>
<g><line x1="194.606" y1="258.282" x2="197.054" y2="260.734" class="gray" /></g>
<g><line x1="200.547" y1="262.183" x2="204.433" y2="262.183" class="gray" /></g>
<g><line x1="208.527" y1="262.183" x2="211.573" y2="262.183" class="gray" /></g>
<g><line x1="215.667" y1="262.183" x2="219.343" y2="262.183" class="gray" /></g>
<g><line x1="223.437" y1="262.183" x2="227.113" y2="262.183" class="gray" /></g>
<g><line x1="231.207" y1="262.183" x2="234.673" y2="262.183" class="gray" /></g>
<g><line x1="238.767" y1="262.183" x2="242.233" y2="262.183" class="gray" /></g>
<g><line x1="245.698" y1="260.707" x2="248.002" y2="258.309" class="gray" /></g>
<g><line x1="249.474" y1="254.786" x2="249.566" y2="251.319" class="gray" /></g>
<g><line x1="249.509" y1="247.229" x2="249.321" y2="243.757" class="gray" /></g>
<g><line x1="249.21" y1="239.666" x2="249.21" y2="236.2" class="gray" /></g>
<g><line x1="247.717" y1="232.753" x2="245.413" y2="230.593" class="gray" /></g>
<g><line x1="243.232" y1="227.265" x2="242.048" y2="223.941" class="gray" /></g>
<g><line x1="241.812" y1="220.016" x2="242.578" y2="216.64" class="gray" /></g>
<g><line x1="244.472" y1="213.19" x2="247.018" y2="210.626" class="gray" /></g>
<g><line x1="250.424" y1="208.595" x2="253.366" y2="207.73" class="gray" /></g>
<g><line x1="257.31" y1="207.672" x2="261.05" y2="208.653" class="gray" /></g>
<g><line x1="264.413" y1="210.683" x2="266.657" y2="213.133" class="gray" /></g>
<g><line x1="268.546" y1="216.627" x2="269.414" y2="220.029" class="gray" /></g>
<g><line x1="269.235" y1="223.942" x2="268.055" y2="227.264" class="gray" /></g>
<g><line x1="265.824" y1="230.535" x2="263.206" y2="232.81" class="gray" /></g>
<g><line x1="261.66" y1="236.2" x2="261.66" y2="239.666" class="gray" /></g>
<g><line x1="261.66" y1="243.76" x2="261.66" y2="247.226" class="gray" /></g>
<g><line x1="261.603" y1="251.319" x2="261.507" y2="254.787" class="gray" /></g>
<g><line x1="262.896" y1="258.282" x2="265.345" y2="260.735" class="gray" /></g>
<g><line x1="266.756" y1="264.231" x2="266.695" y2="267.697" class="gray" /></g>
</svg>
