<svg xmlns="http://www.w3.org/2000/svg" width="319.92" height="312.491"><path style="stroke:#5f3a78;stroke-width:4px;fill:none;" d="M73 264 L73 264 L74 257 L74 249 L74 242 L74 234 L66 233 L60 230 L55 224 L54 216 L55 209 L60 203 L66 199 L74 199 L74 191 L74 184 L74 176 L74 169 L74 161 L71 154 L73 147 L80 144 L87 147 L90 154 L86 161 L86 169 L86 176 L86 184 L86 191 L86 199 L93 203 L97 209 L99 216 L97 224 L93 230 L86 234 L86 242 L86 249 L86 257 L92 262 L99 262 L107 262 L114 262 L120 257 L120 249 L120 242 L116 235 L119 228 L115 221 L117 214 L122 209 L129 209 L135 214 L136 221 L132 228 L135 235 L132 242 L132 249 L132 257 L137 262 L143 257 L143 249 L142 242 L143 234 L136 231 L132 224 L136 217 L142 215 L142 207 L142 199 L142 192 L142 184 L142 177 L143 169 L136 166 L130 161 L126 155 L124 148 L124 140 L127 133 L122 128 L116 122 L111 117 L105 112 L100 107 L94 102 L87 99 L84 92 L77 92 L70 89 L66 82 L66 75 L59 75 L53 71 L50 64 L51 57 L56 51 L64 50 L71 52 L75 58 L75 66 L82 63 L89 64 L95 69 L96 76 L93 83 L100 86 L103 93 L108 98 L114 103 L119 108 L125 114 L130 119 L136 124 L142 121 L142 114 L141 106 L145 100 L152 100 L157 106 L155 114 L155 121 L162 124 L167 129 L172 135 L173 143 L173 150 L180 154 L187 155 L191 162 L187 168 L180 170 L174 165 L168 161 L162 166 L155 169 L155 177 L155 184 L155 192 L155 199 L155 207 L155 215 L159 220 L159 228 L155 234 L155 242 L155 249 L155 257 L160 262 L168 262 L175 262 L181 257 L181 249 L177 242 L181 235 L181 228 L180 220 L181 213 L181 205 L175 200 L172 194 L172 186 L176 180 L183 176 L190 176 L197 180 L201 186 L202 194 L199 200 L193 205 L193 213 L193 220 L193 228 L193 235 L196 242 L193 249 L193 257 L198 262 L206 262 L213 262 L221 262 L229 262 L236 262 L244 262 L249 257 L249 249 L249 242 L249 234 L243 229 L241 222 L243 214 L248 209 L255 207 L263 209 L268 214 L269 222 L267 229 L261 234 L261 242 L261 249 L261 257 L266 262 L266 270"/></svg>