<svg xmlns="http://www.w3.org/2000/svg" width="272.53" height="441.26"><path style="stroke:#ae40bf;stroke-width:4px;fill:none;" d="M66 337 L66 337 L67 329 L67 322 L67 314 L67 307 L67 299 L59 299 L53 295 L50 288 L50 280 L53 274 L59 270 L67 269 L67 262 L67 254 L67 246 L67 239 L67 231 L63 225 L66 218 L73 215 L80 218 L83 225 L79 231 L79 239 L79 246 L79 254 L79 262 L79 269 L85 274 L89 280 L89 288 L85 295 L79 299 L79 307 L79 314 L79 322 L79 329 L90 340 L97 340 L103 334 L110 332 L117 334 L122 340 L130 340 L136 337 L143 340 L151 340 L155 334 L162 330 L162 322 L163 315 L160 308 L164 301 L161 294 L165 287 L165 280 L166 272 L167 265 L167 257 L168 250 L168 242 L169 235 L162 231 L159 224 L163 217 L170 215 L170 208 L171 200 L172 193 L172 185 L173 178 L173 170 L167 167 L161 161 L158 155 L157 147 L157 140 L161 133 L156 127 L150 121 L146 116 L140 110 L135 105 L130 99 L123 99 L116 95 L113 88 L114 81 L109 75 L101 75 L95 70 L93 63 L94 56 L100 51 L108 50 L115 53 L118 59 L118 67 L123 72 L128 67 L135 64 L142 66 L147 72 L149 80 L145 87 L140 91 L144 96 L149 102 L155 108 L159 113 L164 119 L170 125 L177 122 L177 115 L176 107 L181 101 L188 102 L193 108 L190 115 L189 123 L196 126 L201 132 L205 138 L206 146 L205 153 L212 157 L219 159 L222 166 L218 172 L210 173 L205 168 L199 164 L193 168 L185 171 L185 178 L184 186 L184 193 L183 201 L183 209 L182 216 L186 222 L186 230 L181 235 L180 243 L180 251 L186 255 L179 258 L179 266 L178 273 L178 281 L177 288 L179 295 L176 302 L179 309 L175 316 L175 323 L174 331 L180 336 L183 342 L183 350 L180 357 L174 361 L166 363 L164 370 L163 378 L157 382 L150 379 L148 371 L152 365 L155 358 L151 352 L143 352 L136 355 L129 352 L122 352 L117 358 L110 360 L102 358 L97 352 L90 352 L85 358 L85 365 L90 370 L98 370 L105 370 L112 370 L118 365 L125 362 L132 364 L138 369 L139 377 L138 384 L132 389 L125 391 L117 388 L112 383 L105 383 L97 383 L90 383 L84 388 L77 388"/></svg>